<?xml version="1.0" encoding="UTF-8"?> <svg xmlns="http://www.w3.org/2000/svg" width="148" height="135" viewBox="0 0 148 135" fill="none"> <path d="M71.2995 131.487C71.2995 133.038 69.9641 134.296 68.3168 134.296H42.7841C41.1368 134.296 39.8014 133.038 39.8014 131.487V66.8344C39.8014 65.2675 41.1095 63.9971 42.7233 63.9971L98.0935 63.9978C102.389 63.9978 106.684 62.6494 110.57 59.7604C114.456 56.8715 116.502 52.0566 116.502 45.5083C116.502 38.9599 114.456 34.3378 110.57 31.4488C106.684 28.5598 102.389 27.0187 98.0935 27.0187H43.4602L39.8014 27.0202V27.0144H23.8863C22.4461 27.0144 21.0775 26.4046 20.1389 25.344L0.474366 3.12481C-0.611075 1.89836 0.286211 0 1.95166 0H48.1349C48.3892 0 48.639 0.0190771 48.8829 0.05505H99.9343C112.002 0.05505 122.842 4.29214 132.864 12.5739C142.886 20.8556 148 31.8338 148 45.5083C148 58.605 143.091 69.3904 133.273 78.0573C123.456 86.7243 112.411 90.9615 99.9343 90.9615H74.2823C72.6349 90.9615 71.2995 92.2187 71.2995 93.7698V131.487Z" fill="#11163F"></path> </svg> 