<?xml version="1.0" encoding="UTF-8"?> <svg xmlns="http://www.w3.org/2000/svg" width="341" height="340" viewBox="0 0 341 340" fill="none"> <path d="M34.4451 106.401L33.2845 109.882L21.6787 105.936C19.5897 105.24 17.7327 105.008 16.5721 105.472C15.4116 105.936 14.4831 106.633 14.0189 108.025C13.5546 109.418 13.5546 110.811 14.251 112.436C14.9473 113.828 15.8758 115.221 17.2685 116.149L29.8028 120.328L28.6422 123.809L17.0364 119.863C14.7152 119.167 13.0904 118.935 11.9298 119.167C10.7692 119.399 9.84077 120.328 9.37654 121.72C8.9123 123.113 8.9123 124.506 9.60865 126.13C10.305 127.755 11.2335 128.916 12.6262 129.844L25.1604 134.022L23.9999 137.504L3.34151 130.541L4.5021 127.291L8.9123 128.684C7.75172 127.291 6.82326 125.898 6.59114 124.274C6.12691 122.649 6.35903 121.024 6.82326 119.399C7.51961 117.542 8.44807 116.382 9.60865 115.685C11.0014 114.989 12.394 114.757 13.7867 114.989C11.0014 111.971 10.305 108.722 11.4656 105.472C11.9298 104.312 12.394 103.383 13.0904 102.687C13.7867 101.99 14.7152 101.526 15.6437 101.294C16.5721 101.062 17.5006 101.062 18.6612 101.294C19.8218 101.526 20.9824 101.758 22.1429 102.222L34.4451 106.401Z" fill="#11163F"></path> <path d="M42.3356 94.562C41.4072 95.9547 40.4787 97.1153 39.3181 98.0438C38.1575 98.9723 36.7648 99.4365 35.3721 99.9007C33.9794 100.133 32.5868 100.365 31.1941 100.133C29.8014 99.9007 28.4087 99.4365 27.016 98.7401C25.6233 98.0438 24.6948 96.8832 23.7663 95.9547C22.8379 94.7942 22.1415 93.6336 21.9094 92.2409C21.4452 90.8482 21.4452 89.4555 21.6773 88.0628C21.9094 86.6701 22.3736 85.0453 23.3021 83.6526C24.2306 82.2599 25.159 81.0993 26.3196 80.1708C27.4802 79.2424 28.8729 78.7781 30.2656 78.546C31.6583 78.3139 33.051 78.3139 34.4437 78.546C35.8364 78.7781 37.2291 79.2424 38.3897 79.9387C38.6218 80.1708 38.8539 80.1708 39.086 80.4029C39.3181 80.6351 39.5502 80.6351 39.5502 80.8672L30.4977 96.419C31.4262 96.8832 32.3546 97.1153 33.5152 97.3474C34.4437 97.3474 35.3721 97.3474 36.3006 97.1153C37.2291 96.8832 37.9254 96.419 38.8539 95.9547C39.5502 95.4905 40.2466 94.7941 40.7108 93.8657C40.9429 93.4015 41.4072 92.7051 41.4072 92.0088C41.4072 91.3124 41.6393 90.6161 41.6393 90.1518C41.6393 89.4555 41.6393 88.9912 41.4072 88.2949C41.1751 87.5985 40.9429 87.1343 40.7108 86.6701L43.032 84.3489C43.4962 85.0453 43.9604 85.9737 44.1926 86.6701C44.4247 87.5985 44.6568 88.527 44.6568 89.4555C44.6568 90.3839 44.4247 91.3124 44.1926 92.473C43.2641 92.7051 42.7999 93.6336 42.3356 94.562ZM34.9079 81.7956C33.9794 81.3314 33.051 81.0993 32.1225 81.0993C31.1941 81.0993 30.2656 81.0993 29.3371 81.3314C28.4087 81.5635 27.7123 82.0278 27.016 82.492C26.3196 82.9562 25.6233 83.6526 25.159 84.581C24.6948 85.5095 24.4627 86.2059 24.2306 87.1343C23.9984 88.0628 24.2306 88.9912 24.2306 89.9197C24.4627 90.8482 24.9269 91.5445 25.3911 92.473C25.8554 93.1693 26.5517 93.8657 27.4802 94.562L34.9079 81.7956Z" fill="#11163F"></path> <path d="M55.5667 72.9752C55.5667 73.2073 55.3345 73.4394 55.3345 73.9037C55.3345 74.3679 55.1024 74.6 54.8703 75.0642C54.6382 75.5285 54.4061 75.9927 54.174 76.4569C53.9418 76.9212 53.7097 77.3854 53.2455 77.8496C52.317 79.0102 51.3886 79.7066 50.228 79.9387C49.0674 80.1708 47.9068 79.9387 46.5141 79.0102L34.9083 69.9577L33.0514 72.2788L30.7302 70.4219L32.5872 68.1008L26.7842 63.6906L29.1054 60.673L34.9083 65.0832L37.9258 61.1373L40.247 62.9942L37.2295 66.9402L47.9068 75.2964C48.6032 75.7606 49.2995 75.9927 49.7638 75.7606C50.228 75.5285 50.9243 75.2964 51.1565 74.8321C51.6207 74.3679 51.8528 73.6715 52.0849 72.9752C52.317 72.2789 52.317 71.8146 52.317 71.5825L55.5667 72.9752Z" fill="#11163F"></path> <path d="M62.2974 67.8692C61.6011 68.5655 60.6726 69.2619 59.9762 69.494C59.0478 69.9582 58.1193 70.1903 57.423 70.1903C56.4945 70.1903 55.566 70.1903 54.8697 69.7261C53.9412 69.494 53.2449 69.0297 52.5485 68.3334C51.8522 67.637 51.388 66.9407 51.1558 66.0122C50.9237 65.0838 50.9237 64.1553 50.9237 63.2268C51.1558 62.2984 51.388 61.1378 52.0843 60.2093C52.5485 59.2809 53.477 58.1203 54.4055 57.1918C55.1018 56.4955 56.0303 55.7991 56.9587 55.1028C57.8872 54.4064 58.8157 53.9422 59.512 53.7101L58.3514 52.5495C57.1909 51.3889 55.7982 50.6926 54.4055 50.6926C53.0128 50.6926 51.6201 51.3889 50.2274 52.5495C48.6026 54.1743 47.6741 56.2633 47.2099 59.2809L44.6566 58.5845C45.3529 55.3349 46.5135 52.5495 48.6026 50.4604C50.6916 48.3714 52.7807 47.4429 54.8697 47.2108C57.1909 47.2108 59.2799 48.1393 61.1368 49.9962L67.404 56.2633C68.1003 56.9597 68.5646 56.9597 69.2609 56.2633L71.5821 58.5845C71.3499 58.8166 71.1178 59.0487 70.8857 59.2809C70.6536 59.513 70.6536 59.7451 70.4215 59.9772C69.9572 60.4414 69.2609 60.6736 68.7967 60.6736C68.3324 60.6736 67.6361 60.4414 67.1719 60.2093L66.0113 59.2809C66.2434 60.9057 66.0113 62.5305 65.547 63.9232C64.3865 65.3159 63.458 66.7086 62.2974 67.8692ZM61.1368 65.3159C62.0653 64.3874 62.7616 63.459 63.2259 62.2984C63.6901 61.1378 63.9222 59.9772 63.6901 59.0487C63.6901 58.3524 63.458 57.656 62.9938 57.4239L60.6726 55.1028C58.8157 55.7991 57.423 56.9597 56.0303 58.3524C54.6376 59.7451 53.9412 60.9057 53.7091 62.2984C53.477 63.6911 53.7091 64.8516 54.6376 65.7801C55.1018 66.2443 55.566 66.4765 56.0303 66.7086C56.4945 66.9407 57.1909 66.9407 57.6551 66.9407C58.1193 66.9407 58.8157 66.7086 59.2799 66.4765C59.7441 66.2443 60.4405 65.7801 61.1368 65.3159Z" fill="#11163F"></path> <path d="M79.011 52.3175L59.049 40.0153L62.0665 37.6941L78.7789 48.3715L72.976 29.3379L75.7614 27.2489L82.0285 49.7642L79.011 52.3175Z" fill="#11163F"></path> <path d="M99.9004 39.0868C98.5077 39.7832 96.8829 40.2474 95.4902 40.4795C94.0975 40.7117 92.4726 40.4795 91.3121 40.0153C89.9194 39.5511 88.7588 38.8547 87.5982 37.9263C86.4376 36.9978 85.5092 35.8372 84.8128 34.4445C84.1165 33.0518 83.6522 31.6591 83.4201 30.2664C83.188 28.8737 83.4201 27.481 83.6522 26.0883C84.1165 24.6956 84.5807 23.535 85.5092 22.1423C86.4376 20.9818 87.5982 20.0533 88.9909 19.1248C90.3836 18.4285 92.0084 17.9643 93.4011 17.7321C94.7938 17.7321 96.1865 17.7321 97.5792 18.1964C98.9719 18.6606 100.132 19.357 101.293 20.2854C102.454 21.2139 103.382 22.3745 104.078 23.535C104.311 23.7672 104.311 23.9993 104.543 24.2314C104.543 24.4635 104.775 24.6956 104.775 24.6956L88.7588 33.2839C89.4551 34.2124 90.1515 34.9087 90.8478 35.6051C91.5442 36.3014 92.4726 36.5336 93.4011 36.7657C94.3296 36.9978 95.258 36.9978 96.1865 36.9978C97.115 36.9978 98.0434 36.5336 98.7398 36.3014C99.4361 36.0693 99.9004 35.6051 100.365 35.1409C100.829 34.6766 101.293 34.2124 101.525 33.7482C101.757 33.2839 102.222 32.5876 102.222 32.1233C102.454 31.427 102.454 30.9628 102.454 30.2664L105.703 29.5701C105.703 30.4985 105.703 31.427 105.471 32.1233C105.239 33.0518 104.775 33.9803 104.311 34.6766C103.846 35.6051 103.15 36.3014 102.454 36.9978C101.757 37.9263 100.829 38.6226 99.9004 39.0868ZM100.365 24.2314C99.9004 23.3029 99.204 22.6066 98.2756 22.1423C97.5792 21.6781 96.6507 21.2139 95.7223 20.9818C94.7938 20.7497 93.8653 20.7497 92.9369 20.7497C92.0084 20.7497 91.08 21.2139 90.1515 21.6781C89.223 22.1423 88.5267 22.8387 88.0624 23.535C87.3661 24.2314 87.134 24.9277 86.6697 25.8562C86.4376 26.7847 86.2055 27.7131 86.4376 28.6416C86.4376 29.5701 86.6697 30.4985 87.134 31.427L100.365 24.2314Z" fill="#11163F"></path> <path d="M116.381 11.001C114.756 11.6974 113.364 12.6258 112.435 14.0185C111.507 15.4112 111.042 16.8039 111.042 18.6609L115.917 31.1951L112.435 32.5878L104.543 12.1616L107.793 11.001L109.65 15.6433C109.882 14.0185 110.346 12.3937 111.042 11.2331C111.739 9.84044 112.899 8.91197 114.06 8.44774C114.292 8.44774 114.524 8.21562 114.756 8.21562C114.988 8.21562 114.988 7.98351 115.221 7.98351L116.381 11.001Z" fill="#11163F"></path> <path d="M133.326 26.0884C131.701 26.5527 129.844 26.7848 128.219 26.5527C126.362 26.5527 124.738 26.0884 123.345 25.3921L124.273 22.6067C125.666 23.303 127.291 23.5351 128.452 23.7673C129.844 23.9994 131.237 23.7673 132.63 23.5351C134.254 23.0709 135.415 22.6067 136.111 21.6782C136.808 20.7498 137.04 19.8213 136.808 18.6607C136.576 18.1965 136.343 17.7322 136.111 17.5001C135.879 17.268 135.415 17.0359 134.719 16.8038C134.022 16.5717 133.558 16.5717 132.63 16.5717C131.933 16.5717 130.773 16.5717 129.844 16.5717C128.452 16.5717 127.291 16.5717 126.362 16.5717C125.434 16.5717 124.506 16.3395 123.809 16.1074C123.113 15.8753 122.649 15.4111 122.184 14.9468C121.72 14.4826 121.488 13.7863 121.256 12.8578C121.024 11.6972 121.024 10.7688 121.256 9.84029C121.488 8.91182 121.952 7.98336 122.416 7.28701C123.113 6.59066 123.809 5.89431 124.738 5.43008C125.666 4.96585 126.595 4.50161 127.755 4.2695C129.38 3.80526 131.005 3.80526 132.397 3.80526C134.022 4.03738 135.183 4.2695 136.343 4.96585L135.183 7.51913C134.022 7.05489 132.862 6.59066 131.701 6.59066C130.541 6.59066 129.38 6.59066 128.219 6.82278C126.827 7.05489 125.898 7.75124 125.202 8.44759C124.506 9.14394 124.273 10.3045 124.506 11.4651C124.738 11.9293 124.738 12.3936 124.97 12.6257C125.202 12.8578 125.666 13.0899 126.13 13.322C126.595 13.5541 127.059 13.322 127.755 13.5541C128.452 13.7863 129.148 13.5541 130.308 13.5541C131.701 13.5541 133.094 13.5541 134.254 13.5541C135.415 13.5541 136.343 13.7863 137.04 14.0184C137.736 14.2505 138.433 14.7147 138.897 15.179C139.361 15.6432 139.825 16.3395 140.057 17.268C140.522 19.1249 140.289 20.9819 138.897 22.6067C137.736 24.2315 135.879 25.3921 133.326 26.0884Z" fill="#11163F"></path> <path d="M154.68 22.1421C153.055 22.3742 151.431 22.1421 150.038 21.6779C148.645 21.2136 147.253 20.5173 146.324 19.8209C145.164 18.8925 144.467 17.7319 143.771 16.5713C143.074 15.1786 142.61 13.7859 142.61 12.3932C142.61 11.0005 142.61 9.37571 142.842 7.98302C143.307 6.59032 143.771 5.19762 144.699 4.26915C145.628 3.34069 146.556 2.18011 147.949 1.48376C149.342 0.787409 150.734 0.323177 152.359 0.0910604C153.984 -0.141056 155.609 0.0910603 157.001 0.555293C158.394 1.01953 159.555 1.71587 160.715 2.64434C161.876 3.57281 162.572 4.73339 163.269 5.89397C163.965 7.28667 164.429 8.44725 164.429 10.0721C164.429 10.3042 164.429 10.7684 164.429 11.0005C164.429 11.2326 164.429 11.4648 164.429 11.6969L146.324 12.8575C146.556 14.018 146.788 14.9465 147.485 15.6429C147.949 16.5713 148.645 17.2677 149.342 17.7319C150.038 18.1961 150.966 18.6604 151.663 18.8925C152.591 19.1246 153.52 19.3567 154.448 19.1246C155.145 19.1246 155.841 18.8925 156.305 18.6604C156.769 18.4282 157.466 18.1961 157.93 17.7319C158.394 17.2677 158.858 17.0356 159.323 16.3392C159.787 15.875 160.019 15.4107 160.251 14.7144L163.501 15.1786C163.269 16.1071 162.804 16.8034 162.34 17.4998C161.876 18.1961 161.18 18.8925 160.251 19.3567C159.555 19.8209 158.626 20.5173 157.698 20.7494C156.769 21.91 155.609 22.1421 154.68 22.1421ZM160.715 8.67936C160.483 7.7509 160.251 6.82243 159.555 5.89397C158.858 4.9655 158.394 4.50127 157.698 3.80492C157.001 3.34069 156.073 2.87646 155.377 2.64434C154.448 2.41222 153.52 2.41222 152.591 2.41222C151.663 2.41222 150.734 2.87646 149.806 3.34069C148.877 3.80492 148.181 4.26915 147.717 4.9655C147.02 5.66185 146.788 6.3582 146.324 7.28667C146.092 8.21513 145.86 9.1436 145.86 10.3042L160.715 8.67936Z" fill="#11163F"></path> <path d="M188.337 7.28683C188.337 7.75107 188.105 8.44742 187.873 8.91165C187.641 9.37588 187.409 9.84011 186.945 10.0722C186.48 10.3043 186.016 10.5365 185.552 10.7686C185.088 11.0007 184.624 11.0007 183.927 11.0007C183.463 11.0007 182.999 10.7686 182.534 10.5365C182.07 10.3043 181.606 10.0722 181.374 9.608C181.142 9.14376 180.91 8.91165 180.678 8.2153C180.445 7.51895 180.445 7.28683 180.445 6.59049C180.445 6.12625 180.678 5.66202 180.91 5.19779C181.142 4.73356 181.374 4.26932 181.838 4.03721C182.302 3.80509 182.767 3.57297 183.231 3.34086C183.695 3.10874 184.159 3.10874 184.856 3.10874C185.32 3.10874 185.784 3.34086 186.248 3.57297C186.713 3.80509 187.177 4.03721 187.409 4.50144C187.641 4.96567 187.873 5.4299 188.105 5.89414C188.337 6.35837 188.337 6.8226 188.337 7.28683Z" fill="#11163F"></path> <path d="M233.6 33.9805L230.119 32.8199L234.065 21.2141C234.761 19.125 234.993 17.2681 234.529 16.1075C234.065 14.9469 233.368 14.0184 231.976 13.5542C230.583 13.09 229.19 13.09 227.565 13.7863C225.941 14.4827 224.78 15.4111 223.852 16.8038L219.673 29.3381L216.192 28.1775L220.138 16.5717C220.834 14.2506 221.066 12.6258 220.834 11.4652C220.602 10.3046 219.673 9.37612 218.281 8.91189C216.888 8.44766 215.495 8.44766 213.871 9.14401C212.478 9.84036 211.085 10.7688 210.157 12.1615L205.979 24.6958L202.497 23.5352L209.46 2.87687L212.71 4.03745L211.317 8.44766C212.71 7.28708 214.103 6.35861 215.728 6.12649C217.352 5.66226 218.977 5.89438 220.602 6.35861C222.459 7.05496 223.619 7.98343 224.316 9.14401C225.012 10.5367 225.244 11.9294 225.012 13.3221C228.03 10.5367 231.279 9.84036 234.529 11.0009C235.689 11.4652 236.618 11.9294 237.314 12.6258C238.011 13.3221 238.475 14.2506 238.707 15.179C238.939 16.1075 238.939 17.036 238.707 18.1965C238.475 19.3571 238.243 20.5177 237.779 21.6783L233.6 33.9805Z" fill="#11163F"></path> <path d="M245.438 41.8722C244.045 40.9437 242.885 40.0153 241.956 38.8547C241.028 37.6941 240.564 36.3014 240.099 34.9087C239.867 33.516 239.635 32.1233 239.867 30.7306C240.099 29.3379 240.564 27.9452 241.26 26.5525C241.956 25.1598 242.885 24.2313 244.045 23.3029C245.206 22.3744 246.367 21.6781 247.759 21.446C249.152 21.2138 250.545 20.9817 251.937 21.2138C253.33 21.446 254.955 21.9102 256.348 22.6065C257.74 23.535 258.901 24.4635 259.829 25.624C260.758 26.7846 261.222 28.1773 261.454 29.57C261.686 30.9627 261.686 32.3554 261.454 33.7481C261.222 35.1408 260.758 36.5335 260.061 37.6941C259.829 37.9262 259.829 38.1583 259.597 38.3904C259.365 38.6226 259.365 38.8547 259.133 38.8547L243.581 29.8021C243.117 30.7306 242.885 31.6591 242.653 32.8197C242.653 33.7481 242.653 34.6766 242.885 35.605C243.117 36.5335 243.581 37.2299 244.045 38.1583C244.51 38.8547 245.206 39.551 246.134 40.0153C246.599 40.2474 247.295 40.7116 247.991 40.7116C248.688 40.9437 249.384 40.9437 249.848 40.9437C250.545 40.9437 251.009 40.9437 251.705 40.7116C252.402 40.4795 252.866 40.2474 253.33 40.0153L255.651 42.3364C254.955 42.8007 254.026 43.2649 253.33 43.497C252.634 43.7291 251.473 43.9612 250.545 43.9612C249.616 43.9612 248.688 43.7291 247.527 43.497C247.295 42.8007 246.367 42.3364 245.438 41.8722ZM258.437 34.4445C258.901 33.516 259.133 32.5875 259.133 31.6591C259.133 30.7306 259.133 29.8021 258.901 28.8737C258.669 27.9452 258.204 27.2489 257.74 26.5525C257.276 25.8562 256.58 25.1598 255.651 24.6956C254.723 24.2313 254.026 23.9992 253.098 23.7671C252.169 23.535 251.241 23.7671 250.313 23.7671C249.384 23.9992 248.688 24.4635 247.759 24.9277C247.063 25.3919 246.367 26.0883 245.67 27.0167L258.437 34.4445Z" fill="#11163F"></path> <path d="M267.258 55.1029C267.025 55.1029 266.793 54.8708 266.329 54.8708C265.865 54.8708 265.633 54.6387 265.169 54.4066C264.704 54.1745 264.24 53.9423 263.776 53.7102C263.312 53.4781 262.847 53.246 262.383 52.7818C261.223 51.8533 260.526 50.9248 260.294 49.7642C260.062 48.6037 260.294 47.4431 261.223 46.0504L270.275 34.4446L267.954 32.5876L269.811 30.2665L272.132 32.1234L276.542 26.3205L279.56 28.6417L275.15 34.4446L279.096 37.4621L277.239 39.7832L273.293 36.7657L264.936 47.4431C264.472 48.1394 264.24 48.8358 264.472 49.3C264.704 49.7642 264.936 50.4606 265.401 50.6927C265.865 51.1569 266.561 51.3891 267.258 51.6212C267.954 51.8533 268.418 51.8533 268.65 51.8533L267.258 55.1029Z" fill="#11163F"></path> <path d="M272.132 61.8337C271.436 61.1373 270.739 60.2089 270.507 59.5125C270.043 58.584 269.811 57.6556 269.811 56.9592C269.811 56.0308 269.811 55.1023 270.275 54.406C270.739 53.7096 270.971 52.7811 271.668 52.0848C272.364 51.3884 273.06 50.9242 273.989 50.6921C274.917 50.46 275.846 50.46 276.774 50.46C277.703 50.6921 278.863 50.9242 279.792 51.6206C280.72 52.0848 281.881 53.0133 282.809 53.9417C283.506 54.6381 284.202 55.5665 284.898 56.495C285.595 57.4235 286.059 58.3519 286.291 59.0483L287.452 57.8877C288.612 56.7271 289.309 55.3344 289.309 53.9417C289.309 52.549 288.612 51.1563 287.452 49.7636C285.827 48.1388 283.738 47.2104 280.72 46.7461L281.417 44.1928C284.666 44.8892 287.452 46.0498 289.541 48.1388C291.63 50.2279 292.558 52.3169 292.79 54.406C292.79 56.7271 291.862 58.8162 290.005 60.6731L283.738 66.9402C283.041 67.6366 283.041 68.1008 283.738 68.7972L281.417 71.1183C281.184 70.8862 280.952 70.6541 280.72 70.422C280.488 70.1899 280.256 70.1899 280.024 69.9577C279.56 69.4935 279.327 68.7972 279.327 68.3329C279.327 67.6366 279.56 67.1724 279.792 66.7081L280.72 65.5475C279.095 65.7797 277.471 65.5475 276.078 65.0833C274.917 63.9227 273.525 62.9943 272.132 61.8337ZM274.917 60.441C275.846 61.3695 277.006 62.0658 277.935 62.53C279.095 62.9943 280.256 62.9943 281.184 62.9943C281.881 62.9943 282.577 62.7621 282.809 62.2979L285.13 59.9767C284.434 58.1198 283.273 56.7271 281.881 55.3344C280.488 53.9417 279.327 53.2454 277.935 53.0133C276.542 52.7811 275.382 53.0133 274.453 53.9417C273.989 54.406 273.757 54.8702 273.525 55.3344C273.292 55.7987 273.292 56.495 273.292 56.9592C273.292 57.6556 273.525 58.1198 273.757 58.584C273.989 59.0483 274.453 59.9768 274.917 60.441Z" fill="#11163F"></path> <path d="M287.915 78.5464L299.985 58.5844L302.306 61.6019L291.629 78.3143L310.662 72.5113L312.751 75.2967L290.236 81.5639L287.915 78.5464Z" fill="#11163F"></path> <path d="M301.145 99.4366C300.449 98.0439 299.985 96.4191 299.753 95.0264C299.52 93.6337 299.753 92.241 300.217 90.8483C300.681 89.4556 301.377 88.2951 302.306 87.1345C303.234 85.9739 304.395 85.0454 305.788 84.3491C307.18 83.6527 308.573 83.1885 309.966 82.9564C311.358 82.7243 312.751 82.9564 314.144 83.1885C315.536 83.6527 316.697 84.117 318.09 85.0454C319.25 85.9739 320.179 87.1345 321.107 88.5272C322.036 89.9199 322.268 91.5447 322.5 92.9374C322.5 94.3301 322.5 95.7228 322.036 97.1155C321.571 98.5082 320.875 99.6687 319.947 100.829C319.018 101.99 317.858 102.918 316.697 103.615C316.465 103.847 316.233 103.847 316.001 104.079C315.769 104.079 315.536 104.311 315.536 104.311L306.948 88.5272C306.02 89.2235 305.323 89.9199 304.627 90.6162C303.931 91.3126 303.698 92.241 303.466 93.1695C303.234 94.098 303.234 95.0264 303.234 95.9549C303.234 96.8834 303.698 97.8118 303.931 98.5082C304.163 99.2045 304.627 99.6687 305.091 100.133C305.555 100.597 306.02 101.061 306.484 101.294C306.948 101.526 307.644 101.99 308.109 101.99C308.805 102.222 309.269 102.222 309.966 102.222L310.662 105.472C309.733 105.472 308.805 105.472 308.109 105.24C307.412 105.007 306.252 104.543 305.555 104.079C304.627 103.615 303.931 102.918 303.234 102.222C302.538 101.526 301.609 100.365 301.145 99.4366ZM315.768 99.9009C316.697 99.4366 317.393 98.7403 317.858 97.8118C318.322 96.8833 318.786 96.187 319.018 95.2585C319.25 94.3301 319.25 93.4016 319.25 92.4731C319.25 91.5447 318.786 90.6162 318.322 89.6877C317.858 88.7593 317.161 88.0629 316.465 87.5987C315.769 86.9024 314.84 86.6702 314.144 86.206C313.215 85.9739 312.287 85.7418 311.358 85.9739C310.43 85.9739 309.501 86.206 308.573 86.6702L315.768 99.9009Z" fill="#11163F"></path> <path d="M329.001 115.917C328.304 114.293 327.144 112.9 325.983 111.971C324.823 111.043 323.198 110.579 321.341 110.579L308.807 115.453L307.414 111.971L327.84 104.079L329.001 107.329L324.358 109.186C325.983 109.418 327.608 109.882 328.769 110.579C330.161 111.275 331.09 112.436 331.554 113.596C331.554 113.828 331.786 114.06 331.786 114.293C331.786 114.525 332.018 114.525 332.018 114.757L329.001 115.917Z" fill="#11163F"></path> <path d="M314.144 132.861C313.679 131.237 313.447 129.38 313.679 127.755C313.679 125.898 314.144 124.273 314.84 122.88L317.625 123.809C316.929 125.201 316.697 126.826 316.465 127.987C316.233 129.38 316.465 130.772 316.697 132.165C317.161 133.79 317.625 134.95 318.554 135.647C319.482 136.343 320.411 136.575 321.571 136.343C322.036 136.111 322.5 135.879 322.732 135.647C322.964 135.415 323.196 134.95 323.428 134.254C323.66 133.558 323.66 133.093 323.66 132.165C323.66 131.469 323.66 130.308 323.66 129.38C323.66 127.987 323.66 126.826 323.66 125.898C323.66 124.969 323.893 124.041 324.125 123.345C324.357 122.648 324.821 122.184 325.285 121.72C325.749 121.256 326.446 121.023 327.374 120.791C328.535 120.559 329.463 120.559 330.392 120.791C331.32 121.023 332.249 121.488 332.945 121.952C333.641 122.416 334.338 123.345 334.802 124.273C335.266 125.201 335.73 126.13 335.963 127.291C336.427 128.915 336.427 130.54 336.427 131.933C336.427 133.326 335.962 134.718 335.266 135.879L332.713 134.718C333.177 133.558 333.641 132.397 333.641 131.236C333.641 130.076 333.641 128.915 333.409 127.755C333.177 126.362 332.481 125.434 331.784 124.737C331.088 124.041 329.928 123.809 328.767 124.041C328.303 124.273 327.838 124.273 327.606 124.505C327.374 124.737 327.142 125.201 326.91 125.666C326.678 126.13 326.678 126.594 326.678 127.291C326.678 127.987 326.678 128.683 326.678 129.844C326.678 131.237 326.678 132.629 326.678 133.79C326.678 134.95 326.446 135.879 326.214 136.575C325.982 137.272 325.517 137.968 325.053 138.432C324.589 138.896 323.892 139.361 322.964 139.593C321.107 140.057 319.25 139.825 317.625 138.432C316.001 137.039 314.84 135.415 314.144 132.861Z" fill="#11163F"></path> <path d="M318.09 153.984C317.858 152.359 318.09 150.734 318.555 149.342C319.019 147.949 319.715 146.556 320.644 145.628C321.572 144.467 322.733 143.771 323.893 143.075C325.286 142.378 326.679 141.914 328.071 141.682C329.696 141.45 331.089 141.682 332.482 141.914C333.874 142.378 335.267 142.842 336.195 143.771C337.124 144.699 338.284 145.628 338.981 147.021C339.677 148.413 340.141 149.806 340.374 151.431C340.606 153.056 340.374 154.68 339.909 156.073C339.445 157.466 338.749 158.626 337.82 159.787C336.892 160.947 335.731 161.644 334.571 162.34C333.178 163.037 332.017 163.501 330.393 163.501C330.16 163.501 329.696 163.501 329.464 163.501C329.232 163.501 329 163.501 328.768 163.501L326.911 145.628C325.75 145.86 324.822 146.092 324.125 146.788C323.197 147.253 322.501 147.949 322.036 148.645C321.572 149.342 321.108 150.27 320.876 150.966C320.644 151.895 320.412 152.823 320.644 153.752C320.644 154.448 320.876 155.145 321.108 155.609C321.34 156.305 321.572 156.769 322.036 157.234C322.501 157.698 322.733 158.162 323.429 158.626C323.893 159.091 324.358 159.323 325.054 159.555L324.59 162.804C323.661 162.572 322.965 162.108 322.268 161.644C321.572 161.18 320.876 160.483 320.412 159.555C319.947 158.858 319.251 157.93 319.019 157.002C318.322 156.073 318.09 155.145 318.09 153.984ZM331.553 160.019C332.482 159.787 333.41 159.555 334.339 158.858C335.267 158.394 335.963 157.698 336.428 157.002C336.892 156.305 337.356 155.377 337.588 154.68C337.82 153.984 337.82 152.823 337.82 151.895C337.82 150.966 337.356 150.038 336.892 149.11C336.428 148.181 335.963 147.485 335.267 147.021C334.571 146.324 333.874 146.092 332.946 145.628C332.017 145.164 331.089 145.164 330.16 145.164L331.553 160.019Z" fill="#11163F"></path> <path d="M332.714 187.873C332.25 187.873 331.553 187.641 331.089 187.408C330.625 187.176 330.161 186.944 329.928 186.48C329.696 186.016 329.464 185.552 329.232 185.087C329 184.623 329 184.159 329 183.462C329 182.998 329.232 182.534 329.464 182.07C329.696 181.606 329.928 181.141 330.393 180.909C330.857 180.677 331.089 180.445 331.785 180.213C332.482 179.981 332.714 179.981 333.41 179.981C333.874 179.981 334.339 180.213 334.803 180.445C335.267 180.677 335.731 180.909 335.963 181.373C336.196 181.838 336.428 182.302 336.66 182.766C336.892 183.23 336.892 183.695 336.892 184.391C336.892 184.855 336.66 185.319 336.428 185.784C336.195 186.248 335.963 186.712 335.499 186.944C335.035 187.176 334.571 187.408 334.106 187.641C333.642 187.873 333.41 187.873 332.714 187.873Z" fill="#11163F"></path> <path d="M306.253 233.136L307.413 229.654L319.019 233.6C321.108 234.296 322.965 234.529 324.126 234.064C325.286 233.6 326.215 232.904 326.679 231.511C327.143 230.118 327.143 228.726 326.447 227.101C325.751 225.708 324.822 224.315 323.429 223.387L310.895 219.209L312.056 215.727L323.662 219.673C325.983 220.369 327.608 220.602 328.768 220.369C329.929 219.905 330.857 219.209 331.321 217.816C331.786 216.423 331.786 215.031 331.089 213.406C330.393 211.781 329.464 210.621 328.072 209.692L315.537 205.514L316.698 202.032L337.356 208.996L336.196 212.245L331.786 210.853C332.946 212.245 333.875 213.638 334.107 215.263C334.571 216.888 334.339 218.513 333.875 220.137C333.178 221.994 332.25 223.155 331.089 223.851C329.697 224.548 328.304 224.78 326.911 224.548C329.697 227.565 330.393 230.815 329.232 234.064C328.768 235.225 328.304 236.153 327.608 236.85C326.911 237.546 325.983 238.01 325.054 238.242C324.126 238.475 323.197 238.475 322.037 238.242C320.876 238.01 319.716 237.778 318.555 237.314L306.253 233.136Z" fill="#11163F"></path> <path d="M298.36 244.973C299.289 243.581 300.217 242.42 301.378 241.492C302.539 240.563 303.931 240.099 305.324 239.635C306.717 239.403 308.109 239.171 309.502 239.403C310.895 239.635 312.287 240.099 313.68 240.795C315.073 241.492 316.001 242.42 316.93 243.581C317.858 244.741 318.555 245.902 318.787 247.295C319.019 248.687 319.251 250.08 319.019 251.473C318.787 252.865 318.322 254.49 317.626 255.883C316.698 257.276 315.769 258.436 314.609 259.365C313.448 260.293 312.055 260.757 310.663 261.222C309.27 261.686 307.877 261.454 306.485 261.222C305.092 260.99 303.699 260.525 302.539 259.829C302.306 259.597 302.074 259.597 301.842 259.365C301.61 259.133 301.378 259.133 301.378 258.9L310.431 243.349C309.502 242.884 308.574 242.652 307.413 242.42C306.484 242.42 305.556 242.42 304.628 242.652C303.699 242.884 303.003 243.349 302.074 243.813C301.146 244.277 300.682 244.973 300.217 245.902C299.985 246.366 299.521 247.063 299.521 247.759C299.289 248.455 299.289 249.152 299.289 249.616C299.289 250.312 299.289 250.776 299.521 251.473C299.753 252.169 299.985 252.633 300.217 253.098L297.896 255.419C297.432 254.722 296.968 253.794 296.736 253.098C296.504 252.169 296.271 251.241 296.271 250.312C296.271 249.384 296.504 248.455 296.736 247.295C297.432 246.83 297.896 245.902 298.36 244.973ZM305.788 257.972C306.717 258.436 307.645 258.668 308.574 258.668C309.502 258.668 310.431 258.668 311.359 258.436C312.287 258.204 312.984 257.74 313.68 257.276C314.376 256.811 315.073 256.115 315.537 255.187C316.001 254.258 316.233 253.562 316.466 252.633C316.698 251.705 316.466 250.776 316.466 249.848C316.233 248.919 315.769 248.223 315.305 247.295C314.841 246.366 314.144 245.902 313.216 245.206L305.788 257.972Z" fill="#11163F"></path> <path d="M285.129 266.793C285.129 266.561 285.361 266.329 285.361 265.864C285.361 265.4 285.593 265.168 285.825 264.704C286.057 264.24 286.289 263.775 286.522 263.311C286.754 262.847 286.986 262.383 287.45 261.919C288.378 260.758 289.307 260.062 290.467 259.829C291.628 259.597 292.789 259.829 294.181 260.758L305.787 269.578L307.644 267.257L309.965 269.114L308.108 271.435L313.911 275.845L311.59 278.863L305.787 274.453L302.77 278.399L300.448 276.542L303.466 272.596L292.789 264.24C292.092 263.775 291.396 263.543 290.932 263.775C290.467 264.008 289.771 264.24 289.539 264.704C289.075 265.168 288.843 265.864 288.611 266.561C288.378 267.257 288.378 267.721 288.378 267.954L285.129 266.793Z" fill="#11163F"></path> <path d="M278.398 271.667C279.094 270.971 280.023 270.275 280.719 270.042C281.415 269.81 282.576 269.346 283.272 269.346C284.201 269.346 285.129 269.346 285.826 269.81C286.754 270.042 287.45 270.507 288.147 271.203C288.843 271.899 289.307 272.596 289.539 273.524C289.772 274.453 289.772 275.381 289.772 276.31C289.54 277.238 289.307 278.399 288.611 279.327C288.147 280.256 287.218 281.416 286.29 282.345C285.594 283.041 284.665 283.737 283.737 284.434C282.808 285.13 281.88 285.594 281.183 285.826L282.344 286.987C283.504 288.148 284.897 288.844 286.29 288.844C287.683 288.844 289.075 288.148 290.468 286.755C292.093 285.13 293.021 283.041 293.485 280.023L296.039 280.72C295.342 283.969 294.182 286.755 292.093 288.844C290.004 290.933 287.915 291.861 285.826 292.094C283.504 292.094 281.415 291.165 279.559 289.308L273.291 283.041C272.595 282.345 272.131 282.345 271.434 283.041L269.113 280.72C269.345 280.488 269.577 280.256 269.81 280.023C270.042 279.791 270.042 279.559 270.274 279.327C270.738 278.863 271.434 278.631 271.899 278.631C272.595 278.631 273.059 278.863 273.523 279.095L274.684 280.023C274.452 278.399 274.684 276.774 275.148 275.381C276.309 274.453 277.237 273.06 278.398 271.667ZM279.791 274.453C278.862 275.381 278.166 276.542 277.702 277.47C277.237 278.399 277.237 279.791 277.237 280.72C277.237 281.416 277.469 282.112 277.934 282.345L280.255 284.666C282.112 283.969 283.504 282.809 284.897 281.416C286.29 280.023 286.986 278.863 287.218 277.47C287.45 276.077 287.218 274.917 286.29 273.988C285.826 273.524 285.361 273.292 284.897 273.06C284.433 272.828 283.737 272.828 283.272 272.828C282.576 272.828 282.112 273.06 281.648 273.292C280.719 273.524 280.255 273.988 279.791 274.453Z" fill="#11163F"></path> <path d="M261.918 287.451L281.879 299.521L278.862 301.842L262.15 291.165L267.953 310.199L265.167 312.288L258.9 289.772L261.918 287.451Z" fill="#11163F"></path> <path d="M241.029 300.681C242.421 299.985 244.046 299.521 245.439 299.289C246.831 299.057 248.224 299.289 249.617 299.753C251.01 300.217 252.17 300.914 253.331 301.842C254.491 302.771 255.42 303.931 256.116 305.324C256.812 306.716 257.277 308.109 257.509 309.502C257.741 310.895 257.509 312.287 257.277 313.68C256.812 315.073 256.348 316.233 255.42 317.626C254.491 319.019 253.331 319.715 251.938 320.643C250.545 321.34 248.921 321.804 247.528 322.036C246.135 322.036 244.742 322.036 243.35 321.572C241.957 321.108 240.796 320.411 239.636 319.483C238.475 318.554 237.547 317.394 236.85 316.233C236.618 316.001 236.618 315.769 236.386 315.537C236.386 315.305 236.154 315.073 236.154 315.073L251.938 306.484C251.242 305.556 250.545 304.86 249.849 304.163C249.153 303.467 248.224 303.235 247.296 303.003C246.367 302.771 245.439 302.771 244.51 302.771C243.582 302.771 242.653 303.235 241.957 303.467C241.261 303.699 240.796 304.163 240.332 304.627C239.868 305.092 239.404 305.556 239.172 306.02C238.939 306.484 238.475 307.181 238.475 307.645C238.243 308.341 238.243 308.806 238.243 309.502L234.993 310.198C234.993 309.27 234.994 308.341 235.226 307.645C235.458 306.949 235.922 305.788 236.386 305.092C236.85 304.163 237.547 303.467 238.243 302.771C238.939 302.074 239.868 301.146 241.029 300.681ZM240.564 315.305C241.029 316.233 241.725 316.93 242.653 317.394C243.582 317.858 244.278 318.322 245.207 318.554C246.135 318.787 247.064 318.787 247.992 318.787C248.921 318.787 249.849 318.322 250.777 317.858C251.706 317.394 252.402 316.697 252.866 316.001C253.331 315.305 253.795 314.376 254.259 313.68C254.491 312.751 254.723 311.823 254.491 310.895C254.491 309.966 254.259 309.038 253.795 308.109L240.564 315.305Z" fill="#11163F"></path> <path d="M224.316 328.768C225.941 328.072 227.334 326.911 228.262 325.75C229.191 324.358 229.655 322.965 229.655 321.108L224.781 308.574L228.262 307.181L236.154 327.607L232.905 328.768L231.048 324.126C230.816 325.751 230.352 327.375 229.655 328.536C228.959 329.929 227.798 330.857 226.638 331.321C226.406 331.321 226.173 331.553 225.941 331.553C225.709 331.553 225.709 331.553 225.477 331.786L224.316 328.768Z" fill="#11163F"></path> <path d="M207.371 313.68C208.996 313.216 210.853 312.984 212.478 313.216C214.335 313.216 215.96 313.68 217.352 314.376L216.424 317.162C215.031 316.465 213.406 316.233 212.246 316.001C210.853 315.769 209.46 316.001 208.068 316.233C206.443 316.697 205.282 317.162 204.586 318.09C203.889 319.019 203.657 319.947 203.89 321.108C204.122 321.572 204.354 322.036 204.586 322.268C204.818 322.5 205.282 322.732 205.979 322.965C206.443 323.197 207.139 323.197 208.068 323.197C208.764 323.197 209.925 323.197 210.853 323.197C212.246 323.197 213.406 323.197 214.335 323.197C215.263 323.197 216.192 323.429 216.888 323.661C217.584 323.893 218.049 324.357 218.513 324.822C218.977 325.286 219.209 325.982 219.441 326.911C219.673 328.071 219.673 329 219.441 329.928C219.209 330.857 218.745 331.785 218.281 332.481C217.816 333.178 216.888 333.874 215.96 334.338C215.031 334.802 214.103 335.267 212.942 335.499C211.317 335.963 209.692 335.963 208.3 335.963C206.675 335.731 205.514 335.499 204.354 334.802L205.514 332.249C206.675 332.713 207.835 333.178 208.996 333.178C210.157 333.178 211.317 333.178 212.478 332.946C213.87 332.713 214.799 332.017 215.495 331.321C216.192 330.624 216.424 329.464 216.192 328.303C215.96 327.839 215.96 327.375 215.727 327.143C215.495 326.911 215.031 326.678 214.567 326.446C214.103 326.214 213.638 326.214 212.942 326.214C212.246 326.214 211.549 326.214 210.389 326.214C208.996 326.214 207.603 326.214 206.443 326.214C205.282 326.214 204.354 325.982 203.657 325.75C202.961 325.518 202.265 325.054 201.8 324.589C201.336 324.125 200.872 323.429 200.64 322.5C200.176 320.643 200.408 318.786 201.8 317.162C202.961 315.537 204.818 314.376 207.371 313.68Z" fill="#11163F"></path> <path d="M186.249 317.626C187.873 317.394 189.498 317.626 190.891 318.09C192.284 318.554 193.676 319.251 194.605 320.179C195.765 321.108 196.462 322.268 197.158 323.429C197.854 324.589 198.319 326.214 198.551 327.607C198.783 328.999 198.551 330.624 198.319 332.017C197.854 333.41 197.39 334.802 196.462 335.731C195.533 336.891 194.605 337.82 193.212 338.516C191.819 339.213 190.427 339.677 188.802 339.909C187.177 340.141 185.552 339.909 184.16 339.445C182.767 338.98 181.606 338.284 180.446 337.356C179.285 336.427 178.589 335.267 177.892 334.106C177.196 332.713 176.732 331.553 176.732 329.928C176.732 329.696 176.732 329.232 176.732 328.999C176.732 328.767 176.732 328.535 176.732 328.303L194.605 326.446C194.373 325.286 194.141 324.357 193.444 323.661C192.748 322.964 192.284 322.036 191.587 321.572C190.891 321.108 189.962 320.643 189.266 320.411C188.338 320.179 187.409 319.947 186.481 320.179C185.784 320.179 185.088 320.411 184.624 320.643C183.927 320.875 183.463 321.108 182.999 321.572C182.535 322.036 182.07 322.268 181.606 322.964C181.142 323.429 180.91 323.893 180.91 324.589L177.66 324.125C177.892 323.197 178.357 322.5 178.821 321.804C179.285 321.108 179.981 320.411 180.678 319.947C181.374 319.483 182.303 318.786 183.231 318.554C184.16 317.858 185.088 317.626 186.249 317.626ZM180.214 331.089C180.446 332.017 180.678 332.945 181.374 333.874C181.838 334.802 182.535 335.267 183.231 335.963C183.927 336.427 184.856 336.891 185.552 337.124C186.481 337.356 187.409 337.356 188.338 337.356C189.266 337.356 190.195 336.891 191.123 336.427C192.051 335.963 192.748 335.499 193.212 334.802C193.908 334.106 194.141 333.41 194.605 332.481C195.069 331.553 195.069 330.624 195.069 329.464L180.214 331.089Z" fill="#11163F"></path> <path d="M152.593 332.482C152.593 332.018 152.825 331.321 153.057 330.857C153.289 330.393 153.521 329.929 153.985 329.697C154.449 329.464 154.914 329.232 155.378 329C155.842 328.768 156.306 328.768 157.003 328.768C157.467 328.768 157.931 329 158.395 329.232C158.86 329.464 159.324 329.697 159.556 330.161C159.788 330.625 160.252 330.857 160.252 331.553C160.252 332.25 160.484 332.482 160.484 333.178C160.484 333.642 160.252 334.107 160.02 334.571C159.788 335.035 159.556 335.499 159.092 335.732C158.628 335.964 158.163 336.196 157.699 336.428C157.235 336.66 156.771 336.66 156.074 336.66C155.61 336.66 155.146 336.428 154.682 336.196C154.217 335.964 153.753 335.732 153.521 335.267C153.289 334.803 153.057 334.339 152.825 333.875C152.593 333.41 152.36 332.946 152.593 332.482Z" fill="#11163F"></path> <path d="M107.097 305.788L110.579 306.949L106.633 318.555C105.937 320.644 105.704 322.501 106.169 323.661C106.633 324.822 107.329 325.75 108.722 326.214C110.115 326.679 111.507 326.679 113.132 325.982C114.757 325.286 115.918 324.358 116.846 322.965L121.024 310.43L124.506 311.591L120.56 323.197C119.863 325.518 119.631 327.143 119.863 328.303C120.328 329.464 121.024 330.393 122.417 330.857C123.809 331.321 125.202 331.321 126.827 330.625C128.22 329.928 129.612 329 130.541 327.607L134.719 315.073L138.201 316.233L131.237 336.892L127.988 335.731L129.38 331.321C127.988 332.482 126.595 333.41 124.97 333.874C123.345 334.339 121.72 334.106 120.096 333.642C118.239 332.946 117.078 332.017 116.382 330.857C115.685 329.464 115.453 328.071 115.685 326.679C112.668 329.464 109.418 330.16 106.169 329C105.008 328.536 104.08 328.071 103.383 327.375C102.687 326.679 102.223 325.75 101.991 324.822C101.758 323.893 101.758 322.965 101.991 321.804C102.223 320.644 102.455 319.483 102.919 318.322L107.097 305.788Z" fill="#11163F"></path> <path d="M95.2579 298.129C96.6506 299.057 97.8112 299.986 98.7396 301.146C99.6681 302.307 100.132 303.699 100.597 305.092C100.829 306.485 101.061 307.877 100.829 309.27C100.597 310.663 100.132 312.056 99.436 313.448C98.7396 314.841 97.8112 315.769 96.6506 316.698C95.49 317.626 94.3294 318.323 92.9367 318.555C91.544 319.019 90.1513 319.019 88.7586 318.787C87.3659 318.555 85.7411 318.091 84.3484 317.394C82.9557 316.466 81.7951 315.537 80.8667 314.377C79.9382 313.216 79.474 311.823 79.0098 310.431C78.7776 309.038 78.7776 307.645 79.0098 306.253C79.2419 304.86 79.7061 303.467 80.4024 302.307C80.6346 302.075 80.6346 301.842 80.8667 301.61C81.0988 301.378 81.0988 301.146 81.3309 301.146L96.8827 310.199C97.3469 309.27 97.579 308.342 97.8112 307.181C97.8112 306.253 97.8112 305.324 97.579 304.396C97.3469 303.467 96.8827 302.771 96.4185 301.842C95.9542 300.914 95.2579 300.45 94.3294 299.986C93.8652 299.753 93.1688 299.289 92.4725 299.289C91.7761 299.057 91.0798 299.057 90.6156 299.057C89.9192 299.057 89.455 299.057 88.7586 299.289C88.0623 299.521 87.5981 299.753 87.1338 299.986L84.8127 297.664C85.509 297.2 86.4375 296.736 87.1338 296.504C88.0623 296.272 88.9907 296.04 89.9192 296.04C90.8477 296.04 91.7761 296.272 92.9367 296.504C94.0973 296.736 94.3294 297.432 95.2579 298.129ZM82.2594 305.324C81.7952 306.253 81.563 307.181 81.563 308.11C81.563 309.038 81.563 309.967 81.7951 310.895C82.0273 311.823 82.4915 312.52 82.9557 313.216C83.42 313.913 84.1163 314.609 85.0448 315.073C85.9732 315.537 86.6696 315.769 87.5981 316.002C88.5265 316.234 89.455 316.002 90.3834 316.002C91.3119 315.769 92.0083 315.305 92.9367 314.841C93.8652 314.377 94.3294 313.68 95.0258 312.752L82.2594 305.324Z" fill="#11163F"></path> <path d="M73.4396 284.666C73.6717 284.666 73.9038 284.898 74.3681 284.898C74.8323 284.898 75.0644 285.13 75.5287 285.362C75.9929 285.594 76.4571 285.827 76.9213 286.059C77.3856 286.291 77.8498 286.523 78.314 286.987C79.4746 287.916 80.171 288.844 80.4031 290.005C80.6352 291.165 80.4031 292.326 79.4746 293.719L70.6542 305.324L72.9754 307.181L71.1184 309.502L68.7973 307.646L64.3871 313.448L61.3696 311.127L65.7798 305.324L61.8338 302.307L63.6907 299.986L67.6367 303.003L75.9929 292.326C76.4571 291.629 76.6892 290.933 76.4571 290.469C76.225 290.005 75.9929 289.308 75.5287 289.076C75.0644 288.612 74.3681 288.38 73.6717 288.148C72.9754 287.916 72.5111 287.916 72.279 287.916L73.4396 284.666Z" fill="#11163F"></path> <path d="M68.5645 278.166C69.2609 278.862 69.9572 279.791 70.1894 280.487C70.6536 281.416 70.8857 282.344 70.8857 283.04C70.8857 283.969 70.8857 284.897 70.4215 285.594C69.9572 286.29 69.7251 287.219 69.0288 287.915C68.3324 288.611 67.6361 289.076 66.7076 289.308C65.7791 289.54 64.8507 289.54 63.9222 289.54C62.9937 289.308 61.8332 289.076 60.9047 288.379C59.9762 287.683 58.8157 286.987 57.8872 286.058C57.1908 285.362 56.4945 284.433 55.7981 283.505C55.1018 282.576 54.6376 281.648 54.4054 280.951L53.2449 282.112C52.0843 283.273 51.3879 284.665 51.3879 286.058C51.3879 287.451 52.0843 288.843 53.477 290.236C55.1018 291.861 57.1908 292.789 60.2083 293.254L59.512 295.807C56.2624 295.111 53.477 293.95 51.3879 291.861C49.2989 289.772 48.3704 287.683 48.1383 285.594C48.1383 283.273 49.0668 281.184 50.9237 279.327L57.1908 273.06C57.8872 272.363 57.8872 271.899 57.1908 271.203L59.512 268.881C59.7441 269.114 59.9762 269.346 60.2083 269.578C60.4405 269.81 60.6726 269.81 60.9047 270.042C61.3689 270.506 61.601 271.203 61.601 271.667C61.601 272.363 61.3689 272.827 61.1368 273.292L60.2083 274.452C61.8332 274.22 63.458 274.452 64.8507 274.916C66.2434 275.381 67.404 276.773 68.5645 278.166ZM65.7791 279.327C64.8507 278.398 63.6901 277.702 62.7616 277.238C61.8332 276.773 60.4405 276.773 59.512 276.773C58.8157 276.773 58.1193 277.005 57.8872 277.47L55.566 279.791C56.2624 281.648 57.423 283.041 58.8157 284.433C60.2083 285.826 61.3689 286.522 62.7616 286.754C64.1543 286.986 65.3149 286.754 66.2434 285.826C66.7076 285.362 66.9397 284.897 67.1718 284.433C67.404 283.969 67.404 283.273 67.404 282.808C67.404 282.344 67.1718 281.648 66.9397 281.184C66.7076 280.255 66.4755 279.791 65.7791 279.327Z" fill="#11163F"></path> <path d="M52.7819 261.454L40.7118 281.416L38.3906 278.398L49.068 261.686L30.0345 267.489L27.9454 264.703L50.4607 258.436L52.7819 261.454Z" fill="#11163F"></path> <path d="M39.5506 240.563C40.2469 241.956 40.7112 243.581 40.9433 244.973C41.1754 246.366 40.9433 247.991 40.479 249.151C40.0148 250.544 39.3185 251.705 38.39 252.865C37.4615 254.026 36.301 254.954 34.9083 255.651C33.5156 256.347 32.1229 256.811 30.7302 257.043C29.3375 257.275 27.9448 257.043 26.5521 256.811C25.1594 256.579 23.9988 255.883 22.6061 254.954C21.2134 254.026 20.517 252.865 19.5886 251.472C18.8922 250.08 18.428 248.455 18.1959 247.062C18.1959 245.67 18.1959 244.277 18.6601 242.884C19.1244 241.492 19.8207 240.331 20.7492 239.17C21.6776 238.01 22.8382 237.081 23.9988 236.385C24.2309 236.153 24.463 236.153 24.6951 235.921C24.9273 235.921 25.1594 235.689 25.1594 235.689L33.7477 251.472C34.6761 250.776 35.3725 250.08 36.0688 249.383C36.7652 248.687 36.9973 247.759 37.2294 246.83C37.4615 245.902 37.4615 244.973 37.4615 244.045C37.4615 243.116 36.9973 242.188 36.7652 241.491C36.5331 240.795 36.0688 240.331 35.6046 239.867C35.1404 239.402 34.6761 238.938 34.2119 238.706C33.7477 238.474 33.0513 238.01 32.5871 238.01C31.8907 237.778 31.4265 237.778 30.7302 237.778L30.0338 234.528C30.9623 234.528 31.8907 234.528 32.5871 234.76C33.5156 234.992 34.444 235.456 35.1404 235.921C36.0688 236.385 36.7652 237.081 37.4615 237.778C38.6221 238.706 39.0863 239.635 39.5506 240.563ZM24.9273 240.099C23.9988 240.563 23.3024 241.259 22.8382 242.188C22.374 242.884 21.9097 243.813 21.6776 244.741C21.4455 245.67 21.4455 246.598 21.4455 247.527C21.4455 248.455 21.9097 249.383 22.374 250.312C22.8382 251.24 23.5346 251.937 24.2309 252.401C24.9273 253.097 25.8557 253.329 26.5521 253.794C27.4805 254.026 28.409 254.258 29.3375 254.026C30.2659 254.026 31.1944 253.794 32.1229 253.329L24.9273 240.099Z" fill="#11163F"></path> <path d="M11.4657 224.083C12.162 225.708 13.3226 227.1 14.4832 228.029C15.8759 228.957 17.2686 229.422 19.1255 229.422L31.6598 224.547L33.0525 228.029L12.6262 235.921L11.4657 232.671L16.108 230.814C14.4832 230.814 13.0905 230.35 11.6978 229.422C10.3051 228.725 9.37662 227.565 8.91239 226.404C8.91239 226.172 8.68027 225.94 8.68027 225.708C8.68027 225.476 8.44815 225.476 8.44815 225.243L11.4657 224.083Z" fill="#11163F"></path> <path d="M26.5522 207.138C27.0164 208.763 27.2485 210.62 27.0164 212.245C27.0164 214.102 26.5522 215.727 25.8558 217.119L23.0704 216.191C23.7668 214.798 23.9989 213.174 24.231 212.013C24.4631 210.62 24.231 209.228 23.9989 207.835C23.5347 206.21 23.0704 205.049 22.142 204.353C21.2135 203.657 20.285 203.425 19.1245 203.657C18.6602 203.889 18.196 204.121 17.9639 204.585C17.7318 205.049 17.4996 205.282 17.2675 205.978C17.0354 206.674 17.0354 207.138 17.0354 208.067C17.0354 208.763 17.0354 209.924 17.0354 210.852C17.0354 212.245 17.0354 213.406 17.0354 214.334C17.0354 215.263 16.8033 216.191 16.5712 216.887C16.3391 217.584 15.8748 218.048 15.4106 218.512C14.9464 218.976 14.25 219.209 13.3215 219.441C12.161 219.673 11.2325 219.673 10.304 219.441C9.37557 219.209 8.44711 218.744 7.75076 218.28C7.05441 217.584 6.35806 216.887 5.89383 215.959C5.4296 215.03 4.96536 214.102 4.73325 212.941C4.26901 211.317 4.26901 209.692 4.26901 208.299C4.50113 206.674 4.73325 205.514 5.4296 204.353L7.98287 205.514C7.51864 206.674 7.05441 207.835 7.05441 208.995C7.05441 210.156 7.05441 211.317 7.28653 212.477C7.51864 213.87 8.21499 214.798 8.91134 215.495C9.60769 216.191 10.7683 216.423 11.9289 216.191C12.3931 215.959 12.8573 215.959 13.0894 215.727C13.3215 215.495 13.5537 215.03 13.7858 214.566C13.7858 213.87 14.0179 213.406 14.0179 212.709C14.0179 212.013 14.0179 211.317 14.0179 210.156C14.0179 208.763 14.0179 207.371 14.0179 206.21C14.0179 205.049 14.25 204.121 14.4821 203.425C14.7142 202.728 15.1785 202.032 15.6427 201.568C16.1069 201.103 16.8033 200.639 17.7318 200.407C19.5887 199.943 21.4456 200.175 23.0704 201.568C24.6952 202.96 25.8558 204.585 26.5522 207.138Z" fill="#11163F"></path> <path d="M22.6063 186.016C22.8385 187.641 22.6063 189.266 22.1421 190.658C21.6779 192.051 20.9815 193.444 20.0531 194.372C19.1246 195.533 17.964 196.229 16.8034 196.926C15.4107 197.622 14.018 198.086 12.6253 198.318C11.0005 198.55 9.60783 198.318 8.21513 198.086C6.82243 197.622 5.42974 197.158 4.50127 196.229C3.34069 195.301 2.41222 194.372 1.71587 192.98C1.01953 191.587 0.323177 189.962 0.0910603 188.337C-0.141056 186.712 0.0910603 185.088 0.555293 183.695C1.01953 182.302 1.71587 181.142 2.64434 179.981C3.5728 178.82 4.73339 178.124 5.89397 177.428C7.28667 176.731 8.44725 176.267 10.0721 176.267C10.3042 176.267 10.7684 176.267 11.0005 176.267C11.2326 176.267 11.4648 176.267 11.6969 176.267L13.5538 194.14C14.7144 193.908 15.6429 193.676 16.3392 192.98C17.2677 192.515 17.964 191.819 18.4282 191.123C18.8925 190.426 19.3567 189.498 19.5888 188.801C19.8209 188.105 20.0531 186.945 19.8209 186.016C19.8209 185.32 19.5888 184.623 19.3567 184.159C19.1246 183.463 18.8925 182.999 18.4282 182.534C17.964 182.07 17.7319 181.606 17.0355 181.142C16.3392 180.677 16.1071 180.445 15.4107 180.213L15.875 176.964C16.8034 177.196 17.4998 177.66 18.1961 178.124C18.8925 178.588 19.5888 179.285 20.0531 179.981C20.5173 180.677 21.2136 181.606 21.4458 182.534C22.3742 183.695 22.6063 184.855 22.6063 186.016ZM9.1436 179.749C8.21513 179.981 7.28667 180.213 6.3582 180.909C5.42974 181.374 4.9655 182.07 4.26915 182.766C3.80492 183.463 3.34069 184.391 3.10857 185.088C2.87646 186.016 2.87646 186.945 2.87646 187.873C2.87646 188.801 3.34069 189.73 3.80492 190.658C4.26915 191.587 4.73339 192.283 5.42973 192.747C6.12608 193.444 6.82243 193.676 7.7509 194.14C8.67936 194.372 9.60783 194.604 10.7684 194.604L9.1436 179.749Z" fill="#11163F"></path> <path d="M7.75148 152.127C8.21571 152.127 8.91206 152.359 9.3763 152.591C9.84053 152.823 10.3048 153.055 10.5369 153.52C10.769 153.984 11.0011 154.448 11.2332 154.912C11.4653 155.377 11.4653 155.841 11.4653 156.537C11.4653 157.001 11.2332 157.466 11.0011 157.93C10.769 158.394 10.5369 158.858 10.0726 159.091C9.60841 159.323 9.3763 159.787 8.67995 159.787C7.9836 159.787 7.75148 160.019 7.05513 160.019C6.5909 160.019 6.12667 159.787 5.66244 159.555C5.1982 159.323 4.73397 159.091 4.50185 158.626C4.26974 158.162 4.03762 157.698 3.80551 157.234C3.57339 156.769 3.57339 156.305 3.57339 155.609C3.57339 155.145 3.80551 154.68 4.03762 154.216C4.26974 153.752 4.50185 153.288 4.96609 153.055C5.43032 152.823 5.89455 152.591 6.35879 152.359C6.82302 152.127 7.28725 152.127 7.75148 152.127Z" fill="#11163F"></path> </svg> 