<?xml version="1.0" encoding="UTF-8"?> <svg xmlns="http://www.w3.org/2000/svg" width="452" height="452" viewBox="0 0 452 452" fill="none"> <path d="M452 226C452 350.816 350.816 452 226 452C101.184 452 0 350.816 0 226C0 101.184 101.184 0 226 0C350.816 0 452 101.184 452 226Z" fill="#BDBFDE"></path> <path d="M224.497 300.236C224.497 302.315 222.764 304 220.627 304H187.504C185.367 304 183.634 302.315 183.634 300.236V213.58C183.634 211.48 185.332 209.777 187.425 209.777L259.257 209.777C264.829 209.777 270.401 207.97 275.443 204.098C280.484 200.226 283.137 193.772 283.137 184.995C283.137 176.218 280.484 170.023 275.443 166.151C270.401 162.279 264.829 160.213 259.257 160.213L162.988 160.208C161.119 160.208 159.344 159.39 158.126 157.969L132.615 128.187C131.207 126.544 132.371 124 134.532 124H194.445C194.775 124 195.099 124.025 195.416 124.073H261.645C277.3 124.073 291.363 129.752 304.365 140.853C317.366 151.953 324 166.667 324 184.995C324 202.549 317.632 217.005 304.895 228.622C292.159 240.238 277.831 245.917 261.645 245.917H228.366C226.229 245.917 224.497 247.603 224.497 249.682V300.236Z" fill="#9FA2C8"></path> <path d="M224 350C224 362.15 214.15 372 202 372C189.85 372 180 362.15 180 350C180 337.85 189.85 328 202 328C214.15 328 224 337.85 224 350Z" fill="#9FA2C8"></path> </svg> 