<?xml version="1.0" encoding="UTF-8"?> <svg xmlns="http://www.w3.org/2000/svg" width="775" height="216" viewBox="0 0 775 216" fill="none"> <path d="M285.911 2.73644V212.615H391.752V179.63H320.498V2.73644H285.911Z" fill="#223DFF"></path> <path d="M536.017 131.434C536.017 147.446 531.827 159.455 523.447 167.461C515.068 175.467 503.286 179.47 488.101 179.47C473.129 179.47 461.454 175.467 453.074 167.461C444.695 159.455 440.505 147.446 440.505 131.434V2.73644H405.919V136.478C405.434 151.768 409.218 166.891 416.847 180.151C423.822 191.803 434.125 201.102 446.429 206.851C459.397 212.837 473.539 215.846 487.82 215.657C502.152 215.834 516.344 212.826 529.372 206.851C541.786 201.095 552.229 191.808 559.395 180.151C567.21 166.956 571.099 151.805 570.603 136.478V2.73644H536.017V131.434Z" fill="#223DFF"></path> <path d="M135.437 129.434H174.266C171.971 144.306 164.688 157.956 153.611 168.143C141.788 178.818 126.47 184.155 107.656 184.155C94.6053 184.386 81.7284 181.139 70.3476 174.748C59.406 168.458 50.5107 159.146 44.7283 147.928C38.3982 135.549 35.2219 121.798 35.4813 107.897C35.1834 93.9922 38.3618 80.2327 44.7283 67.867C50.5441 56.7038 59.4341 47.4388 70.3476 41.1669C81.7298 34.7792 94.6057 31.5326 107.656 31.7597C119.378 31.5047 130.969 34.2612 141.321 39.7658C151.125 45.1696 159.076 53.3991 164.139 63.3836H205.61C198.398 44.0203 185.022 27.564 167.541 16.5482C149.582 5.39798 128.791 -0.341784 107.656 0.0157404C88.7231 -0.152115 70.0723 4.60716 53.5349 13.8262C37.2796 22.7958 23.7628 36.0082 14.4253 52.0551C4.67595 68.9424 -0.304895 88.1602 0.0144449 107.657C-0.290361 127.127 4.68999 146.315 14.4253 163.179C23.7114 179.242 37.17 192.493 53.3748 201.528C69.9553 210.785 88.6676 215.545 107.656 215.339C132.293 215.631 156.232 207.15 175.189 191.412C194.147 175.673 206.888 153.704 211.134 129.434H218.58V212.616H251.565V96.5287H135.477L135.437 129.434Z" fill="#223DFF"></path> <path d="M680.726 108.296L774.997 2.73644H731.604L647.06 98.8891H639.575V2.73644H604.989V212.615H639.575V119.104L647.06 119.184L729.803 212.615H774.997L680.726 108.296Z" fill="#223DFF"></path> </svg> 