<?xml version="1.0" encoding="UTF-8"?> <svg xmlns="http://www.w3.org/2000/svg" width="1528" height="255" viewBox="0 0 1528 255" fill="none"> <path d="M216.95 217.45C192.45 242.183 162.467 254.55 127 254.55C91.5333 254.55 61.55 242.183 37.05 217.45C12.55 192.717 0.300002 162.733 0.300002 127.5C0.300002 92.0333 12.55 62.05 37.05 37.55C61.55 12.8166 91.5333 0.449979 127 0.449978C162.467 0.449978 192.45 12.8166 216.95 37.55C241.683 62.05 254.05 92.0333 254.05 127.5C254.05 162.733 241.683 192.717 216.95 217.45ZM59.45 195.4C77.65 213.6 100.167 222.7 127 222.7C153.833 222.7 176.233 213.6 194.2 195.4C212.4 176.967 221.5 154.333 221.5 127.5C221.5 100.433 212.4 77.8 194.2 59.6C176.233 41.1667 153.833 31.95 127 31.95C100.167 31.95 77.65 41.1667 59.45 59.6C41.4833 77.8 32.5 100.433 32.5 127.5C32.5 154.333 41.4833 176.967 59.45 195.4ZM321.794 250L234.294 4.99998L269.294 4.99998L340.344 209.4L411.044 4.99998L446.394 4.99998L358.544 250L321.794 250ZM483.177 219.2L596.927 219.2L596.927 250L450.627 250L450.627 4.99998L595.177 4.99998L595.177 35.8L483.177 35.8L483.177 111.05L586.427 111.05L586.427 141.5L483.177 141.5L483.177 219.2ZM756.973 250L702.023 156.2L644.273 156.2L644.273 250L611.723 250L611.723 4.99998L709.723 4.99998C730.723 4.99998 748.689 12.4666 763.623 27.4C778.556 42.1 786.023 59.95 786.023 80.95C786.023 96.8167 781.239 111.283 771.673 124.35C762.339 137.417 750.206 146.633 735.273 152L793.023 250L756.973 250ZM644.273 35.45L644.273 126.8L709.723 126.8C721.856 126.8 732.123 122.367 740.523 113.5C749.156 104.4 753.473 93.55 753.473 80.95C753.473 68.35 749.156 57.6167 740.523 48.75C732.123 39.8833 721.856 35.45 709.723 35.45L644.273 35.45ZM861.478 250L773.978 4.99998L808.978 4.99998L880.028 209.4L950.728 4.99998L986.078 4.99998L898.228 250L861.478 250ZM990.311 4.99998L1022.86 4.99998L1022.86 250L990.311 250L990.311 4.99998ZM1083.47 219.2L1197.22 219.2L1197.22 250L1050.92 250L1050.92 4.99998L1195.47 4.99998L1195.47 35.8L1083.47 35.8L1083.47 111.05L1186.72 111.05L1186.72 141.5L1083.47 141.5L1083.47 219.2ZM1264.86 250L1194.51 4.99998L1228.81 4.99998L1284.81 206.6L1344.31 4.99997L1377.21 4.99997L1436.71 206.6L1492.71 4.99997L1527.01 4.99997L1456.66 250L1418.86 250L1360.76 54.35L1302.66 250L1264.86 250Z" fill="url(#paint0_linear_37_1253)"></path> <defs> <linearGradient id="paint0_linear_37_1253" x1="733.856" y1="325.87" x2="781.32" y2="-25.3385" gradientUnits="userSpaceOnUse"> <stop stop-color="#DEE1FF"></stop> <stop offset="0.502119" stop-color="#F3E6FE"></stop> <stop offset="0.967432" stop-color="white"></stop> </linearGradient> </defs> </svg> 