<?xml version="1.0" encoding="UTF-8"?> <svg xmlns="http://www.w3.org/2000/svg" width="721" height="317" viewBox="0 0 721 317" fill="none"> <path d="M8.13128 316.055C8.05513 316.065 7.97775 316.057 7.90507 316.033C7.83239 316.008 7.76637 315.967 7.71208 315.913C7.65779 315.858 7.61668 315.792 7.59191 315.72C7.56715 315.647 7.55939 315.57 7.56924 315.494V268.55C7.56924 268.229 7.7499 268.069 8.13128 268.069H16.5618C16.9432 268.069 17.1239 268.229 17.1239 268.55V315.514C17.1337 315.59 17.126 315.667 17.1012 315.74C17.0764 315.812 17.0353 315.878 16.981 315.933C16.9267 315.987 16.8607 316.028 16.788 316.053C16.7154 316.077 16.638 316.085 16.5618 316.075L8.13128 316.055ZM21.3391 277.233C21.263 277.243 21.1856 277.235 21.1129 277.21C21.0402 277.185 20.9742 277.144 20.9199 277.09C20.8656 277.036 20.8245 276.97 20.7998 276.897C20.775 276.825 20.7672 276.747 20.7771 276.671V268.53C20.7771 268.209 20.9577 268.049 21.3391 268.049H39.5451C39.9265 268.049 40.1071 268.209 40.1071 268.53V276.731C40.117 276.808 40.1092 276.885 40.0845 276.957C40.0597 277.03 40.0186 277.096 39.9643 277.15C39.91 277.205 39.844 277.246 39.7713 277.27C39.6986 277.295 39.6212 277.303 39.5451 277.293L21.3391 277.233ZM34.9685 287.56C35.0447 287.55 35.122 287.558 35.1947 287.583C35.2674 287.607 35.3334 287.649 35.3877 287.703C35.442 287.757 35.4831 287.823 35.5079 287.896C35.5326 287.968 35.5404 288.045 35.5305 288.122V296.143C35.5404 296.219 35.5326 296.296 35.5079 296.369C35.4831 296.441 35.442 296.507 35.3877 296.562C35.3334 296.616 35.2674 296.657 35.1947 296.682C35.122 296.706 35.0447 296.714 34.9685 296.704H21.3391C21.263 296.714 21.1856 296.706 21.1129 296.682C21.0402 296.657 20.9742 296.616 20.9199 296.562C20.8656 296.507 20.8245 296.441 20.7998 296.369C20.775 296.296 20.7672 296.219 20.7771 296.143V288.122C20.7672 288.045 20.775 287.968 20.7998 287.896C20.8245 287.823 20.8656 287.757 20.9199 287.703C20.9742 287.649 21.0402 287.607 21.1129 287.583C21.1856 287.558 21.263 287.55 21.3391 287.56H34.9685Z" fill="#223DFF"></path> <path d="M47.6935 316.055C47.6174 316.065 47.54 316.057 47.4673 316.032C47.3947 316.007 47.3286 315.966 47.2743 315.912C47.22 315.858 47.1789 315.792 47.1542 315.719C47.1294 315.647 47.1217 315.569 47.1315 315.493V268.549C47.1315 268.229 47.3122 268.068 47.6935 268.068H55.8431C56.2244 268.068 56.4051 268.229 56.4051 268.549V315.493C56.4149 315.569 56.4072 315.647 56.3824 315.719C56.3577 315.792 56.3166 315.858 56.2623 315.912C56.208 315.966 56.1419 316.007 56.0693 316.032C55.9966 316.057 55.9192 316.065 55.8431 316.055H47.6935Z" fill="#223DFF"></path> <path d="M82.6786 316.336C80.5413 316.353 78.4277 315.887 76.4962 314.972C74.6165 314.096 72.9204 312.871 71.4981 311.363C70.1346 309.875 69.035 308.166 68.2464 306.309C67.4441 304.517 67.027 302.577 67.0219 300.614V283.85C67.0325 281.926 67.4497 280.027 68.2464 278.275C69.0644 276.424 70.2064 274.733 71.6186 273.282C73.0669 271.795 74.7654 270.573 76.6368 269.673C78.5113 268.754 80.5707 268.274 82.6586 268.269H83.0199C83.4013 268.269 83.5819 268.429 83.5819 268.75V276.471C83.5918 276.547 83.584 276.624 83.5592 276.697C83.5345 276.769 83.4934 276.835 83.4391 276.889C83.3848 276.944 83.3188 276.985 83.2461 277.009C83.1734 277.034 83.096 277.042 83.0199 277.032H82.6586C81.8726 277.055 81.1028 277.261 80.4104 277.634C79.6043 278.04 78.8607 278.56 78.2024 279.178C77.5312 279.8 76.9622 280.524 76.5163 281.323C76.0852 282.074 75.857 282.924 75.8539 283.79V300.795C75.8409 301.739 76.0688 302.67 76.5163 303.502C76.9552 304.265 77.5261 304.944 78.2024 305.507C78.8595 306.078 79.6053 306.539 80.4104 306.871C81.1219 307.174 81.8852 307.337 82.6586 307.352H83.0199C83.096 307.342 83.1734 307.35 83.2461 307.375C83.3188 307.399 83.3848 307.441 83.4391 307.495C83.4934 307.549 83.5345 307.615 83.5592 307.688C83.584 307.76 83.5918 307.838 83.5819 307.914V315.714C83.5918 315.79 83.584 315.868 83.5592 315.94C83.5345 316.013 83.4934 316.079 83.4391 316.133C83.3848 316.187 83.3188 316.228 83.2461 316.253C83.1734 316.278 83.096 316.285 83.0199 316.276L82.6786 316.336ZM95.1839 284.893C95.1078 284.903 95.0304 284.895 94.9577 284.87C94.8851 284.845 94.819 284.804 94.7647 284.75C94.7105 284.696 94.6693 284.63 94.6446 284.557C94.6198 284.485 94.6121 284.407 94.6219 284.331V283.77C94.6266 282.852 94.3987 281.949 93.9595 281.143C93.5313 280.343 92.9753 279.618 92.3136 278.997C91.6767 278.398 90.944 277.91 90.1457 277.553C89.4409 277.225 88.6751 277.047 87.8976 277.032H87.6165C87.5404 277.042 87.463 277.034 87.3903 277.009C87.3176 276.985 87.2516 276.944 87.1973 276.889C87.143 276.835 87.1019 276.769 87.0772 276.697C87.0524 276.624 87.0446 276.547 87.0545 276.471V268.71C87.0545 268.389 87.2351 268.229 87.6165 268.229H87.8976C90.039 268.215 92.1548 268.695 94.0799 269.633C95.9494 270.526 97.6424 271.749 99.0781 273.242C100.459 274.717 101.573 276.42 102.37 278.275C103.166 280.027 103.583 281.926 103.594 283.85V284.331C103.604 284.407 103.597 284.485 103.572 284.557C103.547 284.63 103.506 284.696 103.452 284.75C103.397 284.804 103.331 284.845 103.259 284.87C103.186 284.895 103.109 284.903 103.032 284.893H95.1839ZM103.695 300.053C103.685 302.127 103.241 304.176 102.39 306.069C101.548 308.003 100.372 309.774 98.9175 311.303C97.481 312.814 95.7804 314.051 93.8993 314.952C92.0229 315.861 89.9627 316.327 87.8775 316.316H87.5965C87.5203 316.326 87.4429 316.318 87.3702 316.293C87.2976 316.268 87.2315 316.227 87.1773 316.173C87.123 316.119 87.0819 316.053 87.0571 315.98C87.0323 315.908 87.0246 315.83 87.0344 315.754V307.954C87.0246 307.878 87.0323 307.8 87.0571 307.728C87.0819 307.655 87.123 307.589 87.1773 307.535C87.2315 307.481 87.2976 307.44 87.3702 307.415C87.4429 307.39 87.5203 307.382 87.5965 307.392H87.8775C88.636 307.379 89.3851 307.222 90.0855 306.931C90.8725 306.614 91.6042 306.174 92.2533 305.628C92.937 305.071 93.5091 304.391 93.9394 303.622C94.3911 302.771 94.619 301.818 94.6018 300.855H87.5764C87.5002 300.865 87.4228 300.857 87.3502 300.832C87.2775 300.808 87.2115 300.766 87.1572 300.712C87.1029 300.658 87.0618 300.592 87.037 300.519C87.0123 300.447 87.0045 300.369 87.0143 300.293V292.934C87.0045 292.858 87.0123 292.781 87.037 292.708C87.0618 292.635 87.1029 292.569 87.1572 292.515C87.2115 292.461 87.2775 292.42 87.3502 292.395C87.4228 292.37 87.5002 292.363 87.5764 292.373H103.113C103.189 292.363 103.266 292.37 103.339 292.395C103.412 292.42 103.478 292.461 103.532 292.515C103.586 292.569 103.627 292.635 103.652 292.708C103.677 292.781 103.685 292.858 103.675 292.934L103.695 300.053Z" fill="#223DFF"></path> <path d="M128.468 296.264C128.478 296.34 128.47 296.417 128.446 296.489C128.421 296.562 128.38 296.628 128.326 296.682C128.271 296.737 128.205 296.778 128.133 296.802C128.06 296.827 127.982 296.835 127.906 296.825H121.664V315.494C121.674 315.57 121.666 315.648 121.641 315.72C121.616 315.793 121.575 315.859 121.521 315.913C121.467 315.967 121.401 316.008 121.328 316.033C121.255 316.058 121.178 316.066 121.102 316.056H113.073C112.996 316.066 112.919 316.058 112.846 316.033C112.774 316.008 112.708 315.967 112.653 315.913C112.599 315.859 112.558 315.793 112.533 315.72C112.508 315.648 112.501 315.57 112.511 315.494V268.55C112.511 268.23 112.691 268.069 113.073 268.069H121.102C121.483 268.069 121.664 268.23 121.664 268.55V287.561H127.926C128.003 287.551 128.08 287.558 128.153 287.583C128.225 287.608 128.291 287.649 128.346 287.703C128.4 287.758 128.441 287.823 128.466 287.896C128.491 287.969 128.498 288.046 128.488 288.122L128.468 296.264ZM138.806 316.056C138.73 316.066 138.652 316.058 138.58 316.033C138.507 316.008 138.441 315.967 138.387 315.913C138.332 315.859 138.291 315.793 138.266 315.72C138.242 315.648 138.234 315.57 138.244 315.494V296.785H132.483C132.407 296.795 132.329 296.787 132.257 296.762C132.184 296.738 132.118 296.696 132.064 296.642C132.009 296.588 131.968 296.522 131.944 296.449C131.919 296.377 131.911 296.299 131.921 296.223V288.082C131.911 288.006 131.919 287.929 131.944 287.856C131.968 287.783 132.009 287.717 132.064 287.663C132.118 287.609 132.184 287.568 132.257 287.543C132.329 287.518 132.407 287.511 132.483 287.52H138.184V268.51C138.184 268.189 138.364 268.029 138.746 268.029H147.176C147.558 268.029 147.738 268.189 147.738 268.51V315.454C147.748 315.53 147.74 315.608 147.715 315.68C147.691 315.753 147.65 315.819 147.595 315.873C147.541 315.927 147.475 315.968 147.402 315.993C147.33 316.018 147.252 316.025 147.176 316.016L138.806 316.056Z" fill="#223DFF"></path> <path d="M154.34 277.252C154.264 277.262 154.187 277.254 154.114 277.23C154.041 277.205 153.975 277.164 153.921 277.11C153.867 277.055 153.826 276.989 153.801 276.917C153.776 276.844 153.768 276.767 153.778 276.691V268.549C153.778 268.229 153.959 268.068 154.34 268.068H185.393C185.774 268.068 185.955 268.229 185.955 268.549V276.731C185.965 276.807 185.957 276.884 185.932 276.957C185.907 277.03 185.866 277.096 185.812 277.15C185.758 277.204 185.692 277.245 185.619 277.27C185.546 277.295 185.469 277.302 185.393 277.292L154.34 277.252ZM165.942 316.055C165.866 316.065 165.789 316.057 165.716 316.032C165.643 316.007 165.577 315.966 165.523 315.912C165.469 315.858 165.428 315.792 165.403 315.719C165.378 315.647 165.37 315.569 165.38 315.493V281.403C165.37 281.327 165.378 281.25 165.403 281.177C165.428 281.105 165.469 281.039 165.523 280.985C165.577 280.93 165.643 280.889 165.716 280.865C165.789 280.84 165.866 280.832 165.942 280.842H173.971C174.293 280.842 174.473 281.022 174.473 281.403V315.493C174.473 315.874 174.313 316.055 173.971 316.055H165.942Z" fill="#223DFF"></path> <path d="M245.032 316.055C244.804 316.055 244.664 315.981 244.61 315.834L215.324 274.144V268.449C215.324 268.128 215.505 267.968 215.886 267.968H222.811C222.905 267.955 223.001 267.966 223.089 268.001C223.177 268.036 223.254 268.094 223.313 268.168L252.92 310.58V315.493C252.93 315.569 252.922 315.647 252.897 315.719C252.873 315.792 252.832 315.858 252.777 315.912C252.723 315.966 252.657 316.007 252.584 316.032C252.512 316.057 252.434 316.065 252.358 316.055H245.032ZM215.886 316.055C215.81 316.065 215.732 316.057 215.66 316.032C215.587 316.007 215.521 315.966 215.467 315.912C215.412 315.858 215.371 315.792 215.347 315.719C215.322 315.647 215.314 315.569 215.324 315.493V282.085C215.314 281.962 215.346 281.839 215.416 281.737C215.485 281.635 215.587 281.56 215.705 281.524C215.822 281.479 215.951 281.474 216.071 281.51C216.191 281.546 216.295 281.622 216.368 281.724L224.597 293.375V315.433C224.607 315.509 224.6 315.587 224.575 315.659C224.55 315.732 224.509 315.798 224.455 315.852C224.4 315.906 224.334 315.947 224.262 315.972C224.189 315.997 224.112 316.005 224.035 315.995L215.886 316.055ZM243.646 291.269V268.469C243.646 268.148 243.827 267.988 244.209 267.988H252.238C252.619 267.988 252.8 268.148 252.8 268.469V302.559C252.81 302.682 252.777 302.805 252.708 302.907C252.639 303.009 252.536 303.085 252.418 303.121C252.302 303.17 252.172 303.176 252.051 303.14C251.93 303.103 251.826 303.026 251.756 302.92L243.646 291.269Z" fill="#223DFF"></path> <path d="M264.695 316.055C264.619 316.065 264.542 316.057 264.469 316.032C264.396 316.007 264.33 315.966 264.276 315.912C264.222 315.858 264.181 315.792 264.156 315.719C264.131 315.647 264.123 315.569 264.133 315.493V268.549C264.133 268.229 264.314 268.068 264.695 268.068H272.845C273.226 268.068 273.407 268.229 273.407 268.549V315.493C273.417 315.569 273.409 315.647 273.384 315.719C273.359 315.792 273.318 315.858 273.264 315.912C273.21 315.966 273.144 316.007 273.071 316.032C272.998 316.057 272.921 316.065 272.845 316.055H264.695Z" fill="#223DFF"></path> <path d="M299.682 316.336C297.545 316.353 295.432 315.887 293.5 314.972C291.62 314.096 289.924 312.871 288.502 311.363C287.11 309.881 285.983 308.172 285.17 306.309C284.368 304.517 283.95 302.577 283.945 300.614V283.85C283.956 281.926 284.373 280.027 285.17 278.275C285.988 276.424 287.13 274.733 288.542 273.282C289.99 271.795 291.689 270.573 293.56 269.673C295.435 268.754 297.494 268.274 299.582 268.269H299.943C300.325 268.269 300.505 268.429 300.505 268.75V276.471C300.515 276.547 300.508 276.624 300.483 276.697C300.458 276.769 300.417 276.835 300.363 276.889C300.308 276.944 300.242 276.985 300.17 277.009C300.097 277.034 300.02 277.042 299.943 277.032H299.582C298.796 277.055 298.026 277.261 297.334 277.634C296.528 278.04 295.784 278.56 295.126 279.178C294.455 279.8 293.886 280.524 293.44 281.323C293.009 282.074 292.78 282.924 292.777 283.79V300.795C292.764 301.739 292.992 302.67 293.44 303.502C293.879 304.265 294.45 304.944 295.126 305.507C295.783 306.078 296.529 306.539 297.334 306.871C298.045 307.174 298.809 307.337 299.582 307.352H299.943C300.02 307.342 300.097 307.35 300.17 307.375C300.242 307.399 300.308 307.441 300.363 307.495C300.417 307.549 300.458 307.615 300.483 307.688C300.508 307.76 300.515 307.838 300.505 307.914V315.714C300.515 315.79 300.508 315.868 300.483 315.94C300.458 316.013 300.417 316.079 300.363 316.133C300.308 316.187 300.242 316.228 300.17 316.253C300.097 316.278 300.02 316.285 299.943 316.276L299.682 316.336ZM312.188 284.893C312.112 284.903 312.034 284.895 311.962 284.87C311.889 284.845 311.823 284.804 311.769 284.75C311.714 284.696 311.673 284.63 311.648 284.557C311.624 284.485 311.616 284.407 311.626 284.331V283.77C311.63 282.852 311.403 281.949 310.963 281.143C310.535 280.343 309.979 279.618 309.317 278.997C308.681 278.398 307.948 277.91 307.149 277.553C306.445 277.225 305.679 277.047 304.901 277.032H304.62C304.544 277.042 304.467 277.034 304.394 277.009C304.321 276.985 304.255 276.944 304.201 276.889C304.147 276.835 304.106 276.769 304.081 276.697C304.056 276.624 304.048 276.547 304.058 276.471V268.71C304.058 268.389 304.239 268.229 304.62 268.229H304.901C307.043 268.215 309.159 268.695 311.084 269.633C312.946 270.528 314.632 271.751 316.062 273.242C317.453 274.702 318.58 276.391 319.394 278.235C320.19 279.987 320.607 281.886 320.618 283.81V284.291C320.628 284.367 320.62 284.445 320.596 284.517C320.571 284.59 320.53 284.656 320.475 284.71C320.421 284.764 320.355 284.805 320.282 284.83C320.21 284.855 320.132 284.863 320.056 284.853L312.188 284.893ZM320.699 300.053C320.689 302.127 320.244 304.176 319.394 306.069C318.551 308.003 317.376 309.774 315.921 311.303C314.485 312.814 312.784 314.051 310.903 314.952C309.027 315.861 306.967 316.327 304.881 316.316H304.6C304.524 316.326 304.447 316.318 304.374 316.293C304.301 316.268 304.235 316.227 304.181 316.173C304.127 316.119 304.086 316.053 304.061 315.98C304.036 315.908 304.028 315.83 304.038 315.754V307.954C304.028 307.878 304.036 307.8 304.061 307.728C304.086 307.655 304.127 307.589 304.181 307.535C304.235 307.481 304.301 307.44 304.374 307.415C304.447 307.39 304.524 307.382 304.6 307.392H304.881C305.64 307.379 306.389 307.222 307.089 306.931C307.876 306.614 308.608 306.174 309.257 305.628C309.941 305.071 310.513 304.391 310.943 303.622C311.395 302.771 311.623 301.818 311.606 300.855H304.58C304.504 300.865 304.427 300.857 304.354 300.832C304.281 300.808 304.215 300.766 304.161 300.712C304.107 300.658 304.066 300.592 304.041 300.519C304.016 300.447 304.008 300.369 304.018 300.293V292.934C304.008 292.858 304.016 292.781 304.041 292.708C304.066 292.635 304.107 292.569 304.161 292.515C304.215 292.461 304.281 292.42 304.354 292.395C304.427 292.37 304.504 292.363 304.58 292.373H320.096C320.173 292.363 320.25 292.37 320.323 292.395C320.395 292.42 320.461 292.461 320.516 292.515C320.57 292.569 320.611 292.635 320.636 292.708C320.661 292.781 320.668 292.858 320.658 292.934L320.699 300.053Z" fill="#223DFF"></path> <path d="M345.494 296.264C345.503 296.34 345.496 296.417 345.471 296.489C345.446 296.562 345.405 296.628 345.351 296.682C345.296 296.737 345.23 296.778 345.158 296.802C345.085 296.827 345.008 296.835 344.932 296.825H338.689V315.494C338.699 315.57 338.691 315.648 338.666 315.72C338.641 315.793 338.6 315.859 338.546 315.913C338.492 315.967 338.426 316.008 338.353 316.033C338.28 316.058 338.203 316.066 338.127 316.056H330.098C330.022 316.066 329.944 316.058 329.872 316.033C329.799 316.008 329.733 315.967 329.679 315.913C329.624 315.859 329.583 315.793 329.558 315.72C329.534 315.648 329.526 315.57 329.536 315.494V268.55C329.536 268.23 329.716 268.069 330.098 268.069H338.127C338.508 268.069 338.689 268.23 338.689 268.55V287.561H344.932C345.008 287.551 345.085 287.558 345.158 287.583C345.23 287.608 345.296 287.649 345.351 287.703C345.405 287.758 345.446 287.823 345.471 287.896C345.496 287.969 345.503 288.046 345.494 288.122V296.264ZM355.831 316.056C355.755 316.066 355.678 316.058 355.605 316.033C355.532 316.008 355.466 315.967 355.412 315.913C355.358 315.859 355.316 315.793 355.292 315.72C355.267 315.648 355.259 315.57 355.269 315.494V296.785H349.588C349.512 296.795 349.435 296.787 349.362 296.762C349.29 296.738 349.224 296.696 349.169 296.642C349.115 296.588 349.074 296.522 349.049 296.449C349.024 296.377 349.017 296.299 349.026 296.223V288.082C349.017 288.006 349.024 287.929 349.049 287.856C349.074 287.783 349.115 287.717 349.169 287.663C349.224 287.609 349.29 287.568 349.362 287.543C349.435 287.518 349.512 287.511 349.588 287.52H355.289V268.51C355.289 268.189 355.47 268.029 355.851 268.029H364.282C364.663 268.029 364.844 268.189 364.844 268.51V315.454C364.854 315.53 364.846 315.608 364.821 315.68C364.796 315.753 364.755 315.819 364.701 315.873C364.647 315.927 364.581 315.968 364.508 315.993C364.435 316.018 364.358 316.025 364.282 316.016L355.831 316.056Z" fill="#223DFF"></path> <path d="M371.342 277.252C371.266 277.262 371.188 277.254 371.116 277.23C371.043 277.205 370.977 277.164 370.923 277.11C370.869 277.055 370.827 276.989 370.803 276.917C370.778 276.844 370.77 276.767 370.78 276.691V268.549C370.78 268.229 370.961 268.068 371.342 268.068H402.395C402.776 268.068 402.957 268.229 402.957 268.549V276.731C402.966 276.807 402.959 276.884 402.934 276.957C402.909 277.03 402.868 277.096 402.814 277.15C402.759 277.204 402.693 277.245 402.621 277.27C402.548 277.295 402.471 277.302 402.395 277.292L371.342 277.252ZM382.944 316.055C382.868 316.065 382.791 316.057 382.718 316.032C382.645 316.007 382.579 315.966 382.525 315.912C382.471 315.858 382.429 315.792 382.405 315.719C382.38 315.647 382.372 315.569 382.382 315.493V281.403C382.372 281.327 382.38 281.25 382.405 281.177C382.429 281.105 382.471 281.039 382.525 280.985C382.579 280.93 382.645 280.889 382.718 280.865C382.791 280.84 382.868 280.832 382.944 280.842H390.973C391.294 280.842 391.475 281.022 391.475 281.403V315.493C391.475 315.874 391.314 316.055 390.973 316.055H382.944Z" fill="#223DFF"></path> <path d="M422.57 315.855C422.57 316.316 422.349 316.517 421.927 316.416C420.118 316.127 418.355 315.594 416.689 314.832C415.022 314.092 413.49 313.082 412.152 311.844C410.82 310.6 409.742 309.108 408.981 307.453C408.156 305.633 407.745 303.654 407.776 301.657V301.176C407.766 301.1 407.774 301.023 407.799 300.95C407.824 300.878 407.865 300.812 407.919 300.757C407.973 300.703 408.039 300.662 408.112 300.637C408.185 300.613 408.262 300.605 408.338 300.615H416.367C416.749 300.615 416.929 300.775 416.929 301.096C416.988 301.744 417.144 302.379 417.391 302.981C417.656 303.649 418.014 304.277 418.455 304.846C418.917 305.449 419.457 305.988 420.061 306.45C420.708 306.953 421.434 307.345 422.209 307.613C422.334 307.641 422.445 307.713 422.523 307.816C422.6 307.919 422.638 308.046 422.63 308.175L422.57 315.855ZM441.679 301.677C441.697 303.521 441.342 305.349 440.635 307.052C439.937 308.706 438.936 310.215 437.685 311.503C436.399 312.831 434.891 313.923 433.228 314.732C431.475 315.584 429.587 316.127 427.648 316.336C427.233 316.43 427.019 316.243 427.006 315.775V308.114C426.993 307.996 427.02 307.878 427.082 307.776C427.143 307.675 427.236 307.596 427.347 307.553C428.73 307.058 429.965 306.224 430.94 305.127C431.905 304.063 432.429 302.672 432.405 301.236C432.403 300.35 432.106 299.49 431.562 298.79C430.958 297.989 430.209 297.309 429.354 296.785C428.372 296.19 427.337 295.687 426.263 295.281C425.112 294.839 423.928 294.405 422.71 293.977C420.931 293.376 419.231 292.707 417.612 291.972C416.08 291.32 414.647 290.456 413.356 289.405C412.124 288.38 411.119 287.11 410.406 285.675C409.6 283.952 409.215 282.062 409.282 280.161C409.253 278.456 409.638 276.77 410.406 275.248C411.132 273.827 412.119 272.555 413.316 271.498C414.508 270.443 415.864 269.59 417.331 268.971C418.777 268.355 420.318 267.989 421.887 267.888C422.309 267.888 422.53 268.069 422.53 268.45V275.889C422.541 276.01 422.511 276.131 422.446 276.232C422.38 276.334 422.283 276.411 422.168 276.451C421.099 276.709 420.124 277.266 419.358 278.055C418.771 278.711 418.45 279.562 418.455 280.441C418.465 280.785 418.549 281.122 418.701 281.43C418.854 281.738 419.071 282.01 419.338 282.226C420.07 282.864 420.888 283.397 421.767 283.81C422.943 284.389 424.149 284.905 425.38 285.354C426.718 285.876 428.23 286.41 429.916 286.959C431.299 287.463 432.642 288.073 433.931 288.783C435.331 289.546 436.61 290.512 437.725 291.651C438.902 292.864 439.853 294.276 440.535 295.822C441.303 297.655 441.672 299.631 441.619 301.617L441.679 301.677ZM433.269 280.141C433.204 280.18 433.133 280.206 433.058 280.217C432.984 280.229 432.908 280.225 432.835 280.206C432.762 280.187 432.693 280.154 432.633 280.109C432.573 280.063 432.523 280.006 432.486 279.94C431.957 278.988 431.215 278.172 430.318 277.554C429.427 276.944 428.424 276.514 427.367 276.29C427.242 276.262 427.13 276.19 427.053 276.087C426.976 275.984 426.938 275.857 426.946 275.729V268.289C426.946 267.908 427.166 267.728 427.588 267.728C430.275 267.917 432.886 268.698 435.236 270.014C437.486 271.411 439.29 273.422 440.435 275.809C440.615 276.19 440.555 276.451 440.234 276.591L433.269 280.141Z" fill="#223DFF"></path> <path d="M488.528 316.336C486.391 316.353 484.277 315.887 482.346 314.972C480.466 314.096 478.77 312.871 477.348 311.363C475.956 309.881 474.829 308.172 474.016 306.309C473.213 304.517 472.796 302.577 472.791 300.614V283.85C472.802 281.926 473.219 280.027 474.016 278.275C474.834 276.424 475.976 274.733 477.388 273.282C478.836 271.795 480.535 270.573 482.406 269.673C484.281 268.754 486.34 268.274 488.428 268.269H488.789C489.171 268.269 489.351 268.429 489.351 268.75V276.471C489.361 276.547 489.353 276.624 489.329 276.697C489.304 276.769 489.263 276.835 489.208 276.889C489.154 276.944 489.088 276.985 489.015 277.009C488.943 277.034 488.865 277.042 488.789 277.032H488.428C487.642 277.055 486.872 277.261 486.18 277.634C485.374 278.04 484.63 278.56 483.972 279.178C483.301 279.8 482.732 280.524 482.286 281.323C481.855 282.074 481.626 282.924 481.623 283.79V300.795C481.61 301.739 481.838 302.67 482.286 303.502C482.725 304.265 483.295 304.944 483.972 305.507C484.629 306.078 485.375 306.539 486.18 306.871C486.891 307.174 487.655 307.337 488.428 307.352H488.789C488.865 307.342 488.943 307.35 489.015 307.375C489.088 307.399 489.154 307.441 489.208 307.495C489.263 307.549 489.304 307.615 489.329 307.688C489.353 307.76 489.361 307.838 489.351 307.914V315.714C489.361 315.79 489.353 315.868 489.329 315.94C489.304 316.013 489.263 316.079 489.208 316.133C489.154 316.187 489.088 316.228 489.015 316.253C488.943 316.278 488.865 316.285 488.789 316.276L488.528 316.336ZM501.034 284.893C500.957 284.903 500.88 284.895 500.807 284.87C500.735 284.845 500.669 284.804 500.614 284.75C500.56 284.696 500.519 284.63 500.494 284.557C500.469 284.485 500.462 284.407 500.472 284.331V283.77C500.476 282.852 500.248 281.949 499.809 281.143C499.381 280.343 498.825 279.618 498.163 278.997C497.526 278.398 496.794 277.91 495.995 277.553C495.29 277.225 494.525 277.047 493.747 277.032H493.466C493.39 277.042 493.313 277.034 493.24 277.009C493.167 276.985 493.101 276.944 493.047 276.889C492.993 276.835 492.952 276.769 492.927 276.697C492.902 276.624 492.894 276.547 492.904 276.471V268.71C492.904 268.389 493.085 268.229 493.466 268.229H493.787C495.929 268.215 498.045 268.695 499.97 269.633C501.832 270.528 503.518 271.751 504.948 273.242C506.339 274.702 507.466 276.391 508.28 278.235C509.076 279.987 509.493 281.886 509.504 283.81V284.291C509.514 284.367 509.506 284.445 509.482 284.517C509.457 284.59 509.416 284.656 509.361 284.71C509.307 284.764 509.241 284.805 509.168 284.83C509.096 284.855 509.018 284.863 508.942 284.853L501.034 284.893ZM509.544 300.053C509.535 302.127 509.09 304.176 508.24 306.069C507.397 308.003 506.222 309.774 504.767 311.303C503.331 312.814 501.63 314.051 499.749 314.952C497.873 315.861 495.812 316.327 493.727 316.316H493.446C493.37 316.326 493.293 316.318 493.22 316.293C493.147 316.268 493.081 316.227 493.027 316.173C492.973 316.119 492.931 316.053 492.907 315.98C492.882 315.908 492.874 315.83 492.884 315.754V307.954C492.874 307.878 492.882 307.8 492.907 307.728C492.931 307.655 492.973 307.589 493.027 307.535C493.081 307.481 493.147 307.44 493.22 307.415C493.293 307.39 493.37 307.382 493.446 307.392H493.787C494.546 307.379 495.295 307.222 495.995 306.931C496.782 306.614 497.514 306.174 498.163 305.628C498.847 305.071 499.419 304.391 499.849 303.622C500.301 302.771 500.529 301.818 500.512 300.855H493.486C493.41 300.865 493.333 300.857 493.26 300.832C493.187 300.808 493.121 300.766 493.067 300.712C493.013 300.658 492.972 300.592 492.947 300.519C492.922 300.447 492.914 300.369 492.924 300.293V292.934C492.914 292.858 492.922 292.781 492.947 292.708C492.972 292.635 493.013 292.569 493.067 292.515C493.121 292.461 493.187 292.42 493.26 292.395C493.333 292.37 493.41 292.363 493.486 292.373H509.002C509.079 292.363 509.156 292.37 509.229 292.395C509.301 292.42 509.367 292.461 509.422 292.515C509.476 292.569 509.517 292.635 509.542 292.708C509.567 292.781 509.574 292.858 509.564 292.934L509.544 300.053Z" fill="#223DFF"></path> <path d="M518.881 316.055C518.805 316.065 518.727 316.057 518.655 316.032C518.582 316.007 518.516 315.966 518.462 315.912C518.408 315.858 518.366 315.792 518.342 315.719C518.317 315.647 518.309 315.569 518.319 315.493V268.549C518.319 268.229 518.5 268.068 518.881 268.068H527.171C527.552 268.068 527.733 268.229 527.733 268.549V315.493C527.743 315.569 527.735 315.647 527.71 315.719C527.686 315.792 527.645 315.858 527.59 315.912C527.536 315.966 527.47 316.007 527.397 316.032C527.325 316.057 527.247 316.065 527.171 316.055H518.881ZM531.948 316.055C531.872 316.065 531.795 316.057 531.722 316.032C531.649 316.007 531.583 315.966 531.529 315.912C531.475 315.858 531.434 315.792 531.409 315.719C531.384 315.647 531.377 315.569 531.386 315.493V307.472C531.358 307.391 531.351 307.304 531.366 307.22C531.381 307.135 531.417 307.056 531.472 306.99C531.526 306.923 531.597 306.872 531.677 306.84C531.757 306.809 531.843 306.799 531.928 306.81H550.114C550.19 306.801 550.268 306.808 550.34 306.833C550.413 306.858 550.479 306.899 550.533 306.953C550.588 307.007 550.629 307.073 550.654 307.146C550.678 307.218 550.686 307.296 550.676 307.372V315.393C550.686 315.469 550.678 315.546 550.654 315.619C550.629 315.692 550.588 315.758 550.533 315.812C550.479 315.866 550.413 315.907 550.34 315.932C550.268 315.957 550.19 315.964 550.114 315.955L531.948 316.055Z" fill="#223DFF"></path> <path d="M571.35 316.333C569.107 316.367 566.886 315.901 564.846 314.97C562.968 314.111 561.282 312.883 559.888 311.36C558.536 309.88 557.461 308.168 556.717 306.307C555.979 304.498 555.598 302.565 555.593 300.612V283.847C555.604 281.93 556 280.035 556.757 278.273C557.526 276.435 558.621 274.75 559.989 273.3C561.405 271.802 563.086 270.579 564.947 269.69C566.938 268.739 569.122 268.259 571.33 268.286H571.691C572.072 268.286 572.253 268.447 572.253 268.768V276.488C572.263 276.564 572.255 276.641 572.23 276.714C572.206 276.787 572.164 276.853 572.11 276.907C572.056 276.961 571.99 277.002 571.917 277.027C571.845 277.052 571.767 277.059 571.691 277.05H571.33C570.364 277.036 569.406 277.228 568.52 277.611C567.708 277.96 566.977 278.472 566.372 279.115C565.786 279.753 565.323 280.494 565.007 281.301C564.683 282.118 564.52 282.989 564.525 283.868V300.792C564.52 301.735 564.725 302.667 565.127 303.519C565.504 304.337 566.028 305.078 566.673 305.705C567.301 306.314 568.036 306.804 568.841 307.149C569.626 307.49 570.473 307.668 571.33 307.67H571.691C571.767 307.661 571.845 307.668 571.917 307.693C571.99 307.718 572.056 307.759 572.11 307.813C572.164 307.867 572.206 307.933 572.23 308.006C572.255 308.078 572.263 308.156 572.253 308.232V315.752C572.263 315.828 572.255 315.905 572.23 315.978C572.206 316.05 572.164 316.116 572.11 316.171C572.056 316.225 571.99 316.266 571.917 316.291C571.845 316.315 571.767 316.323 571.691 316.313L571.35 316.333ZM592.286 300.612C592.286 302.558 591.933 304.487 591.242 306.307C590.542 308.172 589.493 309.887 588.151 311.36C586.685 312.969 584.891 314.246 582.89 315.104C580.888 315.962 578.726 316.381 576.549 316.333H576.268C576.191 316.343 576.114 316.335 576.041 316.311C575.969 316.286 575.903 316.245 575.848 316.191C575.794 316.136 575.753 316.07 575.728 315.998C575.703 315.925 575.696 315.848 575.706 315.772V308.252C575.696 308.176 575.703 308.099 575.728 308.026C575.753 307.953 575.794 307.887 575.848 307.833C575.903 307.779 575.969 307.738 576.041 307.713C576.114 307.688 576.191 307.681 576.268 307.69H576.549C577.395 307.695 578.235 307.531 579.018 307.209C579.817 306.882 580.546 306.406 581.165 305.805C581.81 305.178 582.334 304.437 582.711 303.62C583.119 302.74 583.325 301.781 583.313 300.812V283.827C583.375 282.033 582.734 280.285 581.527 278.955C580.893 278.284 580.122 277.758 579.267 277.412C578.411 277.066 577.491 276.908 576.569 276.949H576.288C576.212 276.959 576.134 276.951 576.061 276.927C575.989 276.902 575.923 276.861 575.868 276.807C575.814 276.752 575.773 276.686 575.748 276.614C575.724 276.541 575.716 276.464 575.726 276.388V268.708C575.726 268.387 575.906 268.226 576.288 268.226H576.569C578.848 268.193 581.105 268.673 583.173 269.63C585.047 270.495 586.732 271.721 588.131 273.239C589.455 274.696 590.502 276.381 591.222 278.213C591.931 279.986 592.299 281.877 592.306 283.787L592.286 300.612Z" fill="#223DFF"></path> <path d="M610.772 315.494C610.782 315.57 610.774 315.647 610.749 315.72C610.725 315.793 610.683 315.859 610.629 315.913C610.575 315.967 610.509 316.008 610.436 316.033C610.364 316.058 610.286 316.065 610.21 316.055H601.98C601.659 316.055 601.478 315.875 601.478 315.494V268.47C601.472 268.403 601.48 268.336 601.503 268.273C601.526 268.21 601.564 268.153 601.612 268.107C601.66 268.061 601.719 268.026 601.782 268.005C601.846 267.985 601.914 267.979 601.98 267.989H610.21C610.591 267.989 610.772 268.149 610.772 268.47V315.494ZM635.441 281.665C635.469 283.525 634.982 285.356 634.036 286.959C633.255 288.337 632.228 289.56 631.005 290.568C632.765 291.69 634.16 293.3 635.02 295.2C635.871 297.091 636.303 299.143 636.284 301.216C636.32 303.322 635.966 305.416 635.241 307.393C634.586 309.123 633.581 310.699 632.29 312.025C630.989 313.338 629.422 314.357 627.693 315.013C625.769 315.737 623.727 316.097 621.672 316.076H614.867C614.791 316.085 614.713 316.078 614.641 316.053C614.568 316.028 614.502 315.987 614.448 315.933C614.393 315.879 614.352 315.813 614.328 315.74C614.303 315.667 614.295 315.59 614.305 315.514V307.934C614.295 307.858 614.303 307.781 614.328 307.708C614.352 307.635 614.393 307.569 614.448 307.515C614.502 307.461 614.568 307.42 614.641 307.395C614.713 307.37 614.791 307.363 614.867 307.373H622.254C622.97 307.383 623.68 307.232 624.33 306.93C624.98 306.627 625.554 306.183 626.007 305.628C626.985 304.521 627.52 303.093 627.513 301.617V301.276C627.51 300.558 627.381 299.845 627.131 299.171C626.881 298.485 626.514 297.848 626.047 297.286C625.585 296.726 625.011 296.268 624.361 295.942C623.737 295.634 623.051 295.469 622.354 295.461H614.987C614.897 295.562 614.77 295.623 614.634 295.631C614.499 295.638 614.366 295.592 614.265 295.501C614.164 295.411 614.103 295.284 614.095 295.149C614.087 295.013 614.134 294.88 614.225 294.779V286.979C614.225 286.658 614.405 286.497 614.787 286.497H621.451C622.134 286.545 622.819 286.453 623.465 286.225C624.111 285.997 624.703 285.64 625.204 285.174C625.631 284.741 625.967 284.227 626.191 283.662C626.415 283.097 626.523 282.493 626.509 281.885V281.464C626.527 280.293 626.096 279.16 625.305 278.296C624.792 277.809 624.181 277.437 623.513 277.205C622.845 276.973 622.135 276.887 621.431 276.952H614.767C614.69 276.962 614.613 276.954 614.54 276.93C614.468 276.905 614.402 276.864 614.347 276.81C614.293 276.755 614.252 276.689 614.227 276.617C614.202 276.544 614.195 276.467 614.204 276.391V268.37C614.204 268.049 614.385 267.888 614.767 267.888H620.788C624.651 267.674 628.452 268.928 631.427 271.398C632.773 272.71 633.819 274.299 634.491 276.054C635.163 277.809 635.446 279.689 635.321 281.564" fill="#223DFF"></path> <path d="M653.486 307.711C653.111 309.047 652.703 310.384 652.261 311.721C651.82 313.058 651.411 314.395 651.037 315.732C651.008 315.857 650.936 315.968 650.833 316.046C650.73 316.123 650.603 316.161 650.475 316.153H641.964C641.867 316.161 641.77 316.147 641.68 316.112C641.59 316.078 641.508 316.023 641.442 315.952C641.388 315.88 641.359 315.792 641.359 315.702C641.359 315.611 641.388 315.524 641.442 315.451L654.449 273.34C654.482 273.216 654.556 273.107 654.657 273.03C654.759 272.952 654.883 272.91 655.011 272.91C655.139 272.91 655.264 272.952 655.365 273.03C655.467 273.107 655.54 273.216 655.573 273.34L659.849 286.956L656.115 298.546H662.86C662.987 298.542 663.112 298.582 663.215 298.658C663.317 298.735 663.39 298.844 663.422 298.967L665.87 306.989C665.92 307.059 665.946 307.143 665.946 307.229C665.946 307.315 665.92 307.399 665.87 307.47C665.806 307.544 665.726 307.603 665.635 307.641C665.545 307.679 665.447 307.696 665.349 307.691L653.486 307.711ZM672.816 316.133C672.575 316.133 672.414 315.992 672.314 315.712L657.902 268.708C657.851 268.649 657.823 268.574 657.823 268.497C657.823 268.42 657.851 268.345 657.902 268.286C657.968 268.216 658.049 268.161 658.14 268.127C658.23 268.092 658.327 268.078 658.423 268.086H666.714C666.841 268.082 666.966 268.121 667.068 268.198C667.171 268.275 667.244 268.384 667.275 268.507L681.888 315.531C681.888 315.992 681.888 316.233 681.326 316.233L672.816 316.133Z" fill="#223DFF"></path> <path d="M689.178 316.055C689.102 316.065 689.024 316.057 688.952 316.032C688.879 316.007 688.813 315.966 688.759 315.912C688.704 315.858 688.663 315.792 688.639 315.719C688.614 315.647 688.606 315.569 688.616 315.493V268.549C688.616 268.229 688.797 268.068 689.178 268.068H697.468C697.849 268.068 698.03 268.229 698.03 268.549V315.493C698.04 315.569 698.032 315.647 698.007 315.719C697.983 315.792 697.941 315.858 697.887 315.912C697.833 315.966 697.767 316.007 697.694 316.032C697.622 316.057 697.544 316.065 697.468 316.055H689.178ZM702.245 316.055C702.169 316.065 702.092 316.057 702.019 316.032C701.946 316.007 701.88 315.966 701.826 315.912C701.772 315.858 701.731 315.792 701.706 315.719C701.681 315.647 701.673 315.569 701.683 315.493V307.472C701.673 307.396 701.681 307.319 701.706 307.246C701.731 307.174 701.772 307.108 701.826 307.053C701.88 306.999 701.946 306.958 702.019 306.933C702.092 306.909 702.169 306.901 702.245 306.911H720.431C720.507 306.901 720.585 306.909 720.657 306.933C720.73 306.958 720.796 306.999 720.85 307.053C720.905 307.108 720.946 307.174 720.971 307.246C720.995 307.319 721.003 307.396 720.993 307.472V315.493C721.003 315.569 720.995 315.647 720.971 315.719C720.946 315.792 720.905 315.858 720.85 315.912C720.796 315.966 720.73 316.007 720.657 316.032C720.585 316.057 720.507 316.065 720.431 316.055H702.245Z" fill="#223DFF"></path> <path d="M299.826 136.963L282.724 230.611H150.244L148.418 198.526L82.0573 198.506L68.4079 230.611H0L60.9207 88.2347H130.814L108.353 140.372H142.737L138.622 88.2347H208.556L217.408 204.943L237.882 88.2347H488.229L462.897 230.611H393.104L409.343 136.963L337.744 230.611L299.826 136.963Z" fill="#223DFF"></path> <path d="M716.535 0L704.311 68.18L384.412 68.2201L435.276 0H716.535Z" fill="#223DFF"></path> <path d="M561.635 86.2277L548.869 158.418H690.642L677.976 228.604H520.144C490.035 228.604 473.495 204.54 478.654 174.781C483.572 146.607 493.95 86.2277 493.95 86.2277H561.635Z" fill="#223DFF"></path> <path d="M14.6531 68.18L26.8372 0H200.908L205.846 68.18H14.6531Z" fill="#223DFF"></path> <path d="M217.847 68.18L230.011 0H323.128L350.126 68.18H217.847Z" fill="#223DFF"></path> </svg> 