<?xml version="1.0" encoding="UTF-8"?> <svg xmlns="http://www.w3.org/2000/svg" width="662" height="604" viewBox="0 0 662 604" fill="none"> <g clip-path="url(#clip0_320_10)"> <g opacity="0.4"> <path opacity="0.4" d="M299.216 58.6212L296.844 57.0042L295.039 54.5234L297.564 56.3128L299.216 58.6212Z" fill="#9D9D9C" stroke="#9D9D9C" stroke-width="0.5" stroke-linecap="round" stroke-linejoin="round"></path> <path opacity="0.4" d="M358.429 7.73817L357.109 3.84375L357.929 6.05024L359.279 10.0159L358.429 7.73817Z" fill="#5B7599" stroke="#5B7599" stroke-width="0.5" stroke-linecap="round" stroke-linejoin="round"></path> <path opacity="0.4" d="M365.23 140.787L365.18 123.816L366.182 125.474L366.222 142.272L365.23 140.787Z" fill="#5B7599" stroke="#5B7599" stroke-width="0.5" stroke-linecap="round" stroke-linejoin="round"></path> <path opacity="0.4" d="M366.18 125.476L365.178 123.818L364.719 54.5625L365.704 56.8908L366.18 125.476Z" fill="#5B7599" stroke="#5B7599" stroke-width="0.5" stroke-linecap="round" stroke-linejoin="round"></path> <path opacity="0.4" d="M304.062 9.45721L305.421 5.50178L308.22 3.33594L306.993 7.21002L304.062 9.45721Z" fill="#9D9D9C" stroke="#9D9D9C" stroke-width="0.5" stroke-linecap="round" stroke-linejoin="round"></path> <path opacity="0.4" d="M364.719 54.5617L367.185 52.6094L368.218 55.1414L365.704 56.8904L364.719 54.5617Z" fill="#5B7599" stroke="#5B7599" stroke-width="0.5" stroke-linecap="round" stroke-linejoin="round"></path> <path opacity="0.4" d="M367.188 52.6118L368.068 51.168L369.124 53.7709L368.22 55.1436L367.188 52.6118Z" fill="#5B7599" stroke="#5B7599" stroke-width="0.5" stroke-linecap="round" stroke-linejoin="round"></path> <path opacity="0.4" d="M368.07 51.1658L369.511 48.8477L370.574 51.593L369.126 53.7691L368.07 51.1658Z" fill="#5B7599" stroke="#5B7599" stroke-width="0.5" stroke-linecap="round" stroke-linejoin="round"></path> <path opacity="0.4" d="M369.508 48.8464L369.528 12.668L370.591 15.8303L370.571 51.5921L369.508 48.8464Z" fill="#5B7599" stroke="#5B7599" stroke-width="0.5" stroke-linecap="round" stroke-linejoin="round"></path> <path opacity="0.4" d="M296.977 141.909L297.037 125.06L300.647 123.434L300.597 140.445L296.977 141.909Z" fill="#9D9D9C" stroke="#9D9D9C" stroke-width="0.5" stroke-linecap="round" stroke-linejoin="round"></path> <path opacity="0.4" d="M300.649 123.43L297.039 125.057L297.566 56.31L301.135 54.0117L300.649 123.43Z" fill="#9D9D9C" stroke="#9D9D9C" stroke-width="0.5" stroke-linecap="round" stroke-linejoin="round"></path> <path opacity="0.4" d="M297.564 56.3106L295.039 54.5212L298.841 52.0195L301.133 54.0127L297.564 56.3106Z" fill="#9D9D9C" stroke="#9D9D9C" stroke-width="0.5" stroke-linecap="round" stroke-linejoin="round"></path> <path opacity="0.4" d="M295.043 54.5202L294.141 53.1273L298.034 50.5547L298.845 52.0188L295.043 54.5202Z" fill="#C0C0BF" stroke="#C0C0BF" stroke-width="0.5" stroke-linecap="round" stroke-linejoin="round"></path> <path opacity="0.4" d="M293.711 13.0174L295.273 10.4551L299.055 7.49609L297.645 9.9568L293.711 13.0174Z" fill="#C0C0BF" stroke="#C0C0BF" stroke-width="0.5" stroke-linecap="round" stroke-linejoin="round"></path> <path opacity="0.4" d="M294.14 53.1285L292.68 50.9115L296.705 48.207L298.033 50.5559L294.14 53.1285Z" fill="#C0C0BF" stroke="#C0C0BF" stroke-width="0.5" stroke-linecap="round" stroke-linejoin="round"></path> <path opacity="0.4" d="M292.68 15.0474L293.714 13.0138L297.648 9.95312L296.705 11.9359L292.68 15.0474Z" fill="#9D9D9C" stroke="#9D9D9C" stroke-width="0.5" stroke-linecap="round" stroke-linejoin="round"></path> <path opacity="0.4" d="M292.68 50.9124V15.049L296.705 11.9375V48.2075L292.68 50.9124Z" fill="#9D9D9C" stroke="#9D9D9C" stroke-width="0.5" stroke-linecap="round" stroke-linejoin="round"></path> <path opacity="0.4" d="M288.938 149.098L296.978 141.909L300.598 140.445L293.297 147.38L288.938 149.098Z" fill="#C0C0BF" stroke="#C0C0BF" stroke-width="0.5" stroke-linecap="round" stroke-linejoin="round"></path> <path opacity="0.4" d="M353.438 5.73341L352.352 1.91016L357.109 3.84211L358.425 7.73656L353.438 5.73341Z" fill="#5B7599" stroke="#5B7599" stroke-width="0.5" stroke-linecap="round" stroke-linejoin="round"></path> <path opacity="0.4" d="M283.758 154.385L288.939 149.097L293.299 147.379L288.584 152.524L283.758 154.385Z" fill="#C0C0BF" stroke="#C0C0BF" stroke-width="0.5" stroke-linecap="round" stroke-linejoin="round"></path> <path opacity="0.4" d="M307 7.20984L308.227 3.33574L314.696 1.51562L313.804 5.31855L307 7.20984Z" fill="#E0E0E0" stroke="#E0E0E0" stroke-width="0.5" stroke-linecap="round" stroke-linejoin="round"></path> <path opacity="0.4" d="M276.602 162.488L283.76 154.384L288.586 152.523L282.046 160.485L276.602 162.488Z" fill="#9D9D9C" stroke="#9D9D9C" stroke-width="0.5" stroke-linecap="round" stroke-linejoin="round"></path> <path opacity="0.4" d="M359.007 139.479L358.977 122.355L365.182 123.82L365.233 140.791L359.007 139.479Z" fill="#5B7599" stroke="#5B7599" stroke-width="0.5" stroke-linecap="round" stroke-linejoin="round"></path> <path opacity="0.4" d="M365.177 123.819L358.972 122.354L358.594 52.4883L364.718 54.5628L365.177 123.819Z" fill="#5B7599" stroke="#5B7599" stroke-width="0.5" stroke-linecap="round" stroke-linejoin="round"></path> <path opacity="0.4" d="M358.594 52.49L360.622 50.375L367.185 52.6118L364.718 54.5642L358.594 52.49Z" fill="#9D9D9C" stroke="#9D9D9C" stroke-width="0.5" stroke-linecap="round" stroke-linejoin="round"></path> <path opacity="0.4" d="M406.843 197.772L396.602 177.242L397.887 179.367L408.098 199.765L406.843 197.772Z" fill="#9D9D9C" stroke="#9D9D9C" stroke-width="0.5" stroke-linecap="round" stroke-linejoin="round"></path> <path opacity="0.4" d="M300.602 140.445L300.652 123.434L309.149 122.051L309.109 139.204L300.602 140.445Z" fill="#E0E0E0" stroke="#E0E0E0" stroke-width="0.5" stroke-linecap="round" stroke-linejoin="round"></path> <path opacity="0.4" d="M360.625 50.3728L361.344 48.8477L368.065 51.1658L367.185 52.6097L360.625 50.3728Z" fill="#9D9D9C" stroke="#9D9D9C" stroke-width="0.5" stroke-linecap="round" stroke-linejoin="round"></path> <path opacity="0.4" d="M309.146 122.048L300.648 123.431L301.135 54.0126L309.5 52.0703L309.146 122.048Z" fill="#E0E0E0" stroke="#E0E0E0" stroke-width="0.5" stroke-linecap="round" stroke-linejoin="round"></path> <path opacity="0.4" d="M345.012 4.32084L344.344 0.558594L352.354 1.91097L353.437 5.73423L345.012 4.32084Z" fill="#C0C0BF" stroke="#C0C0BF" stroke-width="0.5" stroke-linecap="round" stroke-linejoin="round"></path> <path opacity="0.4" d="M415.266 565.304L416.308 509.591L417.476 503.828L416.45 558.195L415.266 565.304Z" fill="#5B7599" stroke="#5B7599" stroke-width="0.5" stroke-linecap="round" stroke-linejoin="round"></path> <path opacity="0.4" d="M361.722 7.94267L360.477 5.54297L366.996 8.19689L368.518 10.6779L361.722 7.94267Z" fill="#5B7599" stroke="#5B7599" stroke-width="0.5" stroke-linecap="round" stroke-linejoin="round"></path> <path opacity="0.4" d="M361.344 48.8497L362.528 46.4297L369.506 48.8497L368.065 51.1679L361.344 48.8497Z" fill="#9D9D9C" stroke="#9D9D9C" stroke-width="0.5" stroke-linecap="round" stroke-linejoin="round"></path> <path opacity="0.4" d="M313.797 5.31838L314.689 1.51545L323.865 0.335938L323.45 4.0982L313.797 5.31838Z" fill="#223DFF" stroke="#223DFF" stroke-width="0.5" stroke-linecap="round" stroke-linejoin="round"></path> <path opacity="0.4" d="M362.549 9.87336L361.719 7.94141L368.511 10.6766L369.527 12.6696L362.549 9.87336Z" fill="#5B7599" stroke="#5B7599" stroke-width="0.5" stroke-linecap="round" stroke-linejoin="round"></path> <path opacity="0.4" d="M362.531 46.4297L362.551 9.875L369.53 12.6713L369.509 48.8498L362.531 46.4297Z" fill="#5B7599" stroke="#5B7599" stroke-width="0.5" stroke-linecap="round" stroke-linejoin="round"></path> <path opacity="0.4" d="M301.135 54.0118L298.844 52.019L307.827 49.9141L309.5 52.0699L301.135 54.0118Z" fill="#C0C0BF" stroke="#C0C0BF" stroke-width="0.5" stroke-linecap="round" stroke-linejoin="round"></path> <path opacity="0.4" d="M414.429 220.53L406.844 197.773L408.099 199.767L415.614 222.137L414.429 220.53Z" fill="#5B7599" stroke="#5B7599" stroke-width="0.5" stroke-linecap="round" stroke-linejoin="round"></path> <path opacity="0.4" d="M265.062 178.848L276.602 162.488L282.046 160.484L271.43 176.743L265.062 178.848Z" fill="#9D9D9C" stroke="#9D9D9C" stroke-width="0.5" stroke-linecap="round" stroke-linejoin="round"></path> <path opacity="0.4" d="M416.549 241.565L414.43 220.527L415.614 222.134L417.713 242.674L416.549 241.565Z" fill="#5B7599" stroke="#5B7599" stroke-width="0.5" stroke-linecap="round" stroke-linejoin="round"></path> <path opacity="0.4" d="M416.312 509.59L416.549 241.566L417.713 242.675L417.48 503.827L416.312 509.59Z" fill="#5B7599" stroke="#5B7599" stroke-width="0.5" stroke-linecap="round" stroke-linejoin="round"></path> <path opacity="0.4" d="M298.842 52.0191L298.031 50.555L307.228 48.3789L307.826 49.9142L298.842 52.0191Z" fill="#C0C0BF" stroke="#C0C0BF" stroke-width="0.5" stroke-linecap="round" stroke-linejoin="round"></path> <path opacity="0.4" d="M334.444 3.7419L334.312 0L344.342 0.559253L345.01 4.3215L334.444 3.7419Z" fill="#223DFF" stroke="#223DFF" stroke-width="0.5" stroke-linecap="round" stroke-linejoin="round"></path> <path opacity="0.4" d="M323.453 4.09779L323.869 0.335552L334.313 0L334.445 3.7419L323.453 4.09779Z" fill="#223DFF" stroke="#223DFF" stroke-width="0.5" stroke-linecap="round" stroke-linejoin="round"></path> <path opacity="0.4" d="M365.479 146.248L359 139.477L365.226 140.788L373.081 147.784L365.479 146.248Z" fill="#9D9D9C" stroke="#9D9D9C" stroke-width="0.5" stroke-linecap="round" stroke-linejoin="round"></path> <path opacity="0.4" d="M297.648 9.9543L299.058 7.49359L307.991 4.99219L306.956 7.37158L297.648 9.9543Z" fill="#E0E0E0" stroke="#E0E0E0" stroke-width="0.5" stroke-linecap="round" stroke-linejoin="round"></path> <path opacity="0.4" d="M298.031 50.5562L296.703 48.2073L306.254 45.9297L307.228 48.3804L298.031 50.5562Z" fill="#C0C0BF" stroke="#C0C0BF" stroke-width="0.5" stroke-linecap="round" stroke-linejoin="round"></path> <path opacity="0.4" d="M296.703 11.9367L297.646 9.95385L306.954 7.37109L306.265 9.29289L296.703 11.9367Z" fill="#E0E0E0" stroke="#E0E0E0" stroke-width="0.5" stroke-linecap="round" stroke-linejoin="round"></path> <path opacity="0.4" d="M296.703 48.2069V11.9367L306.265 9.29297L306.254 45.9289L296.703 48.2069Z" fill="#E0E0E0" stroke="#E0E0E0" stroke-width="0.5" stroke-linecap="round" stroke-linejoin="round"></path> <path opacity="0.4" d="M348.419 138.551L348.398 121.316L358.973 122.353L359.004 139.477L348.419 138.551Z" fill="#C0C0BF" stroke="#C0C0BF" stroke-width="0.5" stroke-linecap="round" stroke-linejoin="round"></path> <path opacity="0.4" d="M358.975 122.355L348.4 121.318L348.188 51.0352L358.601 52.4891L358.975 122.355Z" fill="#C0C0BF" stroke="#C0C0BF" stroke-width="0.5" stroke-linecap="round" stroke-linejoin="round"></path> <path opacity="0.4" d="M293.297 147.378L300.597 140.444L309.104 139.203L303.751 145.924L293.297 147.378Z" fill="#C0C0BF" stroke="#C0C0BF" stroke-width="0.5" stroke-linecap="round" stroke-linejoin="round"></path> <path opacity="0.4" d="M257.742 580.322L249.336 569.676L256.86 576.691L264.657 586.837L257.742 580.322Z" fill="#C0C0BF" stroke="#C0C0BF" stroke-width="0.5" stroke-linecap="round" stroke-linejoin="round"></path> <path opacity="0.4" d="M369.682 151.293L365.484 146.25L373.09 147.785L378.178 152.971L369.682 151.293Z" fill="#5B7599" stroke="#5B7599" stroke-width="0.5" stroke-linecap="round" stroke-linejoin="round"></path> <path opacity="0.4" d="M254.719 199.275L265.061 178.847L271.429 176.742L261.877 197.302L254.719 199.275Z" fill="#9D9D9C" stroke="#9D9D9C" stroke-width="0.5" stroke-linecap="round" stroke-linejoin="round"></path> <path opacity="0.4" d="M309.109 139.205L309.15 122.051L321.277 121.156L321.257 138.402L309.109 139.205Z" fill="#223DFF" stroke="#223DFF" stroke-width="0.5" stroke-linecap="round" stroke-linejoin="round"></path> <path opacity="0.4" d="M321.275 121.155L309.148 122.05L309.503 52.0719L321.458 50.8008L321.275 121.155Z" fill="#223DFF" stroke="#223DFF" stroke-width="0.5" stroke-linecap="round" stroke-linejoin="round"></path> <path opacity="0.4" d="M249.33 569.675L245.984 559.934L253.731 566.999L256.854 576.69L249.33 569.675Z" fill="#C0C0BF" stroke="#C0C0BF" stroke-width="0.5" stroke-linecap="round" stroke-linejoin="round"></path> <path opacity="0.4" d="M348.188 51.034L349.433 48.7969L360.629 50.373L358.601 52.488L348.188 51.034Z" fill="#C0C0BF" stroke="#C0C0BF" stroke-width="0.5" stroke-linecap="round" stroke-linejoin="round"></path> <path opacity="0.4" d="M245.986 559.934L244.992 505.227L252.8 510.963L253.732 567L245.986 559.934Z" fill="#9D9D9C" stroke="#9D9D9C" stroke-width="0.5" stroke-linecap="round" stroke-linejoin="round"></path> <path opacity="0.4" d="M349.43 48.7988L349.875 47.2227L361.344 48.8494L360.626 50.3749L349.43 48.7988Z" fill="#C0C0BF" stroke="#C0C0BF" stroke-width="0.5" stroke-linecap="round" stroke-linejoin="round"></path> <path opacity="0.4" d="M335.117 138.166V120.891L348.398 121.317L348.419 138.553L335.117 138.166Z" fill="#E0E0E0" stroke="#E0E0E0" stroke-width="0.5" stroke-linecap="round" stroke-linejoin="round"></path> <path opacity="0.4" d="M321.25 138.4L321.27 121.155L335.111 120.891V138.166L321.25 138.4Z" fill="#223DFF" stroke="#223DFF" stroke-width="0.5" stroke-linecap="round" stroke-linejoin="round"></path> <path opacity="0.4" d="M348.398 121.318L335.114 120.891L335.094 50.4453L348.182 51.0351L348.398 121.318Z" fill="#E0E0E0" stroke="#E0E0E0" stroke-width="0.5" stroke-linecap="round" stroke-linejoin="round"></path> <path opacity="0.4" d="M335.114 120.891L321.273 121.155L321.456 50.8013L335.094 50.4453L335.114 120.891Z" fill="#223DFF" stroke="#223DFF" stroke-width="0.5" stroke-linecap="round" stroke-linejoin="round"></path> <path opacity="0.4" d="M309.501 52.0715L307.828 49.9156L320.685 48.543L321.456 50.8004L309.501 52.0715Z" fill="#C0C0BF" stroke="#C0C0BF" stroke-width="0.5" stroke-linecap="round" stroke-linejoin="round"></path> <path opacity="0.4" d="M350.105 6.00041L349.336 3.67188L360.468 5.54282L361.716 7.94253L350.105 6.00041Z" fill="#9D9D9C" stroke="#9D9D9C" stroke-width="0.5" stroke-linecap="round" stroke-linejoin="round"></path> <path opacity="0.4" d="M288.586 152.521L293.301 147.376L303.755 145.922L300.277 150.945L288.586 152.521Z" fill="#C0C0BF" stroke="#C0C0BF" stroke-width="0.5" stroke-linecap="round" stroke-linejoin="round"></path> <path opacity="0.4" d="M247.102 221.739L254.716 199.277L261.875 197.305L254.777 220.142L247.102 221.739Z" fill="#9D9D9C" stroke="#9D9D9C" stroke-width="0.5" stroke-linecap="round" stroke-linejoin="round"></path> <path opacity="0.4" d="M349.875 47.2224L350.604 44.7109L362.529 46.4295L361.344 48.8495L349.875 47.2224Z" fill="#C0C0BF" stroke="#C0C0BF" stroke-width="0.5" stroke-linecap="round" stroke-linejoin="round"></path> <path opacity="0.4" d="M307.833 49.916L307.234 48.3806L320.406 46.957L320.689 48.5433L307.833 49.916Z" fill="#E0E0E0" stroke="#E0E0E0" stroke-width="0.5" stroke-linecap="round" stroke-linejoin="round"></path> <path opacity="0.4" d="M244.953 242.399L247.103 221.737L254.778 220.141L252.781 241.301L244.953 242.399Z" fill="#9D9D9C" stroke="#9D9D9C" stroke-width="0.5" stroke-linecap="round" stroke-linejoin="round"></path> <path opacity="0.4" d="M244.994 505.229L244.953 242.399L252.781 241.301L252.801 510.962L244.994 505.229Z" fill="#9D9D9C" stroke="#9D9D9C" stroke-width="0.5" stroke-linecap="round" stroke-linejoin="round"></path> <path opacity="0.4" d="M350.629 7.90145L350.109 6L361.72 7.94215L362.55 9.8741L350.629 7.90145Z" fill="#9D9D9C" stroke="#9D9D9C" stroke-width="0.5" stroke-linecap="round" stroke-linejoin="round"></path> <path opacity="0.4" d="M350.609 44.7073L350.63 7.89844L362.554 9.87105L362.534 46.4258L350.609 44.7073Z" fill="#C0C0BF" stroke="#C0C0BF" stroke-width="0.5" stroke-linecap="round" stroke-linejoin="round"></path> <path opacity="0.4" d="M306.961 7.37346L307.995 4.99411L320.771 3.36719L320.284 5.6957L306.961 7.37346Z" fill="#E0E0E0" stroke="#E0E0E0" stroke-width="0.5" stroke-linecap="round" stroke-linejoin="round"></path> <path opacity="0.4" d="M375.517 159.153L369.68 151.293L378.176 152.971L385.201 160.963L375.517 159.153Z" fill="#5B7599" stroke="#5B7599" stroke-width="0.5" stroke-linecap="round" stroke-linejoin="round"></path> <path opacity="0.4" d="M335.094 50.4463L335.348 48.1484L349.431 48.799L348.182 51.0362L335.094 50.4463Z" fill="#C0C0BF" stroke="#C0C0BF" stroke-width="0.5" stroke-linecap="round" stroke-linejoin="round"></path> <path opacity="0.4" d="M321.458 50.8023L320.688 48.5449L335.349 48.1484L335.096 50.4463L321.458 50.8023Z" fill="#C0C0BF" stroke="#C0C0BF" stroke-width="0.5" stroke-linecap="round" stroke-linejoin="round"></path> <path opacity="0.4" d="M307.231 48.3788L306.258 45.9284L319.956 44.4336L320.403 46.9552L307.231 48.3788Z" fill="#E0E0E0" stroke="#E0E0E0" stroke-width="0.5" stroke-linecap="round" stroke-linejoin="round"></path> <path opacity="0.4" d="M306.266 9.29488L306.955 7.37308L320.278 5.69531L319.964 7.58661L306.266 9.29488Z" fill="#E0E0E0" stroke="#E0E0E0" stroke-width="0.5" stroke-linecap="round" stroke-linejoin="round"></path> <path opacity="0.4" d="M306.258 45.9303L306.268 9.29418L319.967 7.58594L319.957 44.4355L306.258 45.9303Z" fill="#223DFF" stroke="#223DFF" stroke-width="0.5" stroke-linecap="round" stroke-linejoin="round"></path> <path opacity="0.4" d="M335.344 48.1472L335.435 46.5508L349.873 47.2219L349.427 48.7981L335.344 48.1472Z" fill="#C0C0BF" stroke="#C0C0BF" stroke-width="0.5" stroke-linecap="round" stroke-linejoin="round"></path> <path opacity="0.4" d="M320.683 48.5436L320.398 46.9574L335.435 46.5508L335.344 48.1472L320.683 48.5436Z" fill="#E0E0E0" stroke="#E0E0E0" stroke-width="0.5" stroke-linecap="round" stroke-linejoin="round"></path> <path opacity="0.4" d="M352.427 145.15L348.422 138.551L359.007 139.476L365.486 146.248L352.427 145.15Z" fill="#C0C0BF" stroke="#C0C0BF" stroke-width="0.5" stroke-linecap="round" stroke-linejoin="round"></path> <path opacity="0.4" d="M335.506 5.20662L335.344 2.89844L349.336 3.67121L350.105 5.99975L335.506 5.20662Z" fill="#E0E0E0" stroke="#E0E0E0" stroke-width="0.5" stroke-linecap="round" stroke-linejoin="round"></path> <path opacity="0.4" d="M320.281 5.69471L320.768 3.36618L335.349 2.89844L335.511 5.20662L320.281 5.69471Z" fill="#E0E0E0" stroke="#E0E0E0" stroke-width="0.5" stroke-linecap="round" stroke-linejoin="round"></path> <path opacity="0.4" d="M335.438 46.5497L335.6 44.0078L350.608 44.7093L349.875 47.2208L335.438 46.5497Z" fill="#C0C0BF" stroke="#C0C0BF" stroke-width="0.5" stroke-linecap="round" stroke-linejoin="round"></path> <path opacity="0.4" d="M320.399 46.9566L319.953 44.435L335.598 44.0078L335.436 46.55L320.399 46.9566Z" fill="#E0E0E0" stroke="#E0E0E0" stroke-width="0.5" stroke-linecap="round" stroke-linejoin="round"></path> <path opacity="0.4" d="M335.609 7.08817L335.508 5.20703L350.108 6.00016L350.627 7.90161L335.609 7.08817Z" fill="#E0E0E0" stroke="#E0E0E0" stroke-width="0.5" stroke-linecap="round" stroke-linejoin="round"></path> <path opacity="0.4" d="M335.602 44.0067L335.612 7.08594L350.627 7.89941L350.607 44.7083L335.602 44.0067Z" fill="#E0E0E0" stroke="#E0E0E0" stroke-width="0.5" stroke-linecap="round" stroke-linejoin="round"></path> <path opacity="0.4" d="M319.961 7.58642L320.275 5.69512L335.505 5.20703L335.606 7.08817L319.961 7.58642Z" fill="#E0E0E0" stroke="#E0E0E0" stroke-width="0.5" stroke-linecap="round" stroke-linejoin="round"></path> <path opacity="0.4" d="M319.953 44.4339L319.963 7.58419L335.609 7.08594L335.598 44.0067L319.953 44.4339Z" fill="#223DFF" stroke="#223DFF" stroke-width="0.5" stroke-linecap="round" stroke-linejoin="round"></path> <path opacity="0.4" d="M303.75 145.923L309.104 139.202L321.251 138.398L318.767 144.977L303.75 145.923Z" fill="#E0E0E0" stroke="#E0E0E0" stroke-width="0.5" stroke-linecap="round" stroke-linejoin="round"></path> <path opacity="0.4" d="M282.039 160.487L288.579 152.525L300.27 150.949L295.444 158.779L282.039 160.487Z" fill="#E0E0E0" stroke="#E0E0E0" stroke-width="0.5" stroke-linecap="round" stroke-linejoin="round"></path> <path opacity="0.4" d="M335.949 144.702L335.117 138.164L348.419 138.55L352.424 145.15L335.949 144.702Z" fill="#C0C0BF" stroke="#C0C0BF" stroke-width="0.5" stroke-linecap="round" stroke-linejoin="round"></path> <path opacity="0.4" d="M318.766 144.977L321.25 138.398L335.111 138.164L335.942 144.702L318.766 144.977Z" fill="#C0C0BF" stroke="#C0C0BF" stroke-width="0.5" stroke-linecap="round" stroke-linejoin="round"></path> <path opacity="0.4" d="M355.02 150.115L352.422 145.152L365.484 146.251L369.681 151.294L355.02 150.115Z" fill="#C0C0BF" stroke="#C0C0BF" stroke-width="0.5" stroke-linecap="round" stroke-linejoin="round"></path> <path opacity="0.4" d="M385.012 175.33L375.523 159.152L385.204 160.962L396.603 177.242L385.012 175.33Z" fill="#5B7599" stroke="#5B7599" stroke-width="0.5" stroke-linecap="round" stroke-linejoin="round"></path> <path opacity="0.4" d="M300.273 150.945L303.751 145.922L318.768 144.977L317.146 149.919L300.273 150.945Z" fill="#E0E0E0" stroke="#E0E0E0" stroke-width="0.5" stroke-linecap="round" stroke-linejoin="round"></path> <path opacity="0.4" d="M336.483 149.625L335.945 144.703L352.423 145.151L355.018 150.113L336.483 149.625Z" fill="#C0C0BF" stroke="#C0C0BF" stroke-width="0.5" stroke-linecap="round" stroke-linejoin="round"></path> <path opacity="0.4" d="M317.148 149.919L318.771 144.978L335.947 144.703L336.485 149.625L317.148 149.919Z" fill="#E0E0E0" stroke="#E0E0E0" stroke-width="0.5" stroke-linecap="round" stroke-linejoin="round"></path> <path opacity="0.4" d="M271.43 176.744L282.046 160.485L295.45 158.777L287.572 174.935L271.43 176.744Z" fill="#E0E0E0" stroke="#E0E0E0" stroke-width="0.5" stroke-linecap="round" stroke-linejoin="round"></path> <path opacity="0.4" d="M358.636 157.861L355.016 150.113L369.677 151.293L375.518 159.153L358.636 157.861Z" fill="#C0C0BF" stroke="#C0C0BF" stroke-width="0.5" stroke-linecap="round" stroke-linejoin="round"></path> <path opacity="0.4" d="M393.603 195.984L385.016 175.332L396.603 177.244L406.844 197.773L393.603 195.984Z" fill="#5B7599" stroke="#5B7599" stroke-width="0.5" stroke-linecap="round" stroke-linejoin="round"></path> <path opacity="0.4" d="M295.445 158.774L300.272 150.945L317.144 149.918L314.893 157.656L295.445 158.774Z" fill="#E0E0E0" stroke="#E0E0E0" stroke-width="0.5" stroke-linecap="round" stroke-linejoin="round"></path> <path opacity="0.4" d="M390.812 591.222L397.861 581.43L411.925 575.016L403.561 585.273L390.812 591.222Z" fill="#5B7599" stroke="#5B7599" stroke-width="0.5" stroke-linecap="round" stroke-linejoin="round"></path> <path opacity="0.4" d="M397.859 581.431L400.687 571.77L415.267 565.305L411.923 575.016L397.859 581.431Z" fill="#9D9D9C" stroke="#9D9D9C" stroke-width="0.5" stroke-linecap="round" stroke-linejoin="round"></path> <path opacity="0.4" d="M337.234 157.333L336.484 149.625L355.02 150.113L358.641 157.861L337.234 157.333Z" fill="#C0C0BF" stroke="#C0C0BF" stroke-width="0.5" stroke-linecap="round" stroke-linejoin="round"></path> <path opacity="0.4" d="M314.898 157.658L317.149 149.92L336.486 149.625L337.236 157.333L314.898 157.658Z" fill="#E0E0E0" stroke="#E0E0E0" stroke-width="0.5" stroke-linecap="round" stroke-linejoin="round"></path> <path opacity="0.4" d="M400.688 571.768L401.568 514.837L416.311 509.59L415.268 565.303L400.688 571.768Z" fill="#5B7599" stroke="#5B7599" stroke-width="0.5" stroke-linecap="round" stroke-linejoin="round"></path> <path opacity="0.4" d="M399.989 219.066L393.602 195.984L406.842 197.774L414.428 220.531L399.989 219.066Z" fill="#5B7599" stroke="#5B7599" stroke-width="0.5" stroke-linecap="round" stroke-linejoin="round"></path> <path opacity="0.4" d="M261.875 197.304L271.426 176.744L287.569 174.934L280.44 195.606L261.875 197.304Z" fill="#E0E0E0" stroke="#E0E0E0" stroke-width="0.5" stroke-linecap="round" stroke-linejoin="round"></path> <path opacity="0.4" d="M401.786 240.548L399.984 219.062L414.423 220.527L416.542 241.565L401.786 240.548Z" fill="#5B7599" stroke="#5B7599" stroke-width="0.5" stroke-linecap="round" stroke-linejoin="round"></path> <path opacity="0.4" d="M401.57 514.838L401.793 240.551L416.549 241.568L416.316 509.591L401.57 514.838Z" fill="#5B7599" stroke="#5B7599" stroke-width="0.5" stroke-linecap="round" stroke-linejoin="round"></path> <path opacity="0.4" d="M264.657 586.838L256.859 576.691L276.642 582.772L282.482 592.463L264.657 586.838Z" fill="#C0C0BF" stroke="#C0C0BF" stroke-width="0.5" stroke-linecap="round" stroke-linejoin="round"></path> <path opacity="0.4" d="M364.563 173.966L358.641 157.859L375.522 159.151L385.011 175.328L364.563 173.966Z" fill="#9D9D9C" stroke="#9D9D9C" stroke-width="0.5" stroke-linecap="round" stroke-linejoin="round"></path> <path opacity="0.4" d="M256.857 576.691L253.734 567L274.297 573.121L276.64 582.771L256.857 576.691Z" fill="#C0C0BF" stroke="#C0C0BF" stroke-width="0.5" stroke-linecap="round" stroke-linejoin="round"></path> <path opacity="0.4" d="M253.73 567.002L252.797 510.965L273.603 515.939L274.293 573.123L253.73 567.002Z" fill="#E0E0E0" stroke="#E0E0E0" stroke-width="0.5" stroke-linecap="round" stroke-linejoin="round"></path> <path opacity="0.4" d="M254.781 220.141L261.879 197.303L280.444 195.605L275.121 218.759L254.781 220.141Z" fill="#E0E0E0" stroke="#E0E0E0" stroke-width="0.5" stroke-linecap="round" stroke-linejoin="round"></path> <path opacity="0.4" d="M287.57 174.932L295.449 158.775L314.896 157.656L311.206 173.743L287.57 174.932Z" fill="#E0E0E0" stroke="#E0E0E0" stroke-width="0.5" stroke-linecap="round" stroke-linejoin="round"></path> <path opacity="0.4" d="M252.781 241.301L254.779 220.141L275.118 218.758L273.618 240.345L252.781 241.301Z" fill="#E0E0E0" stroke="#E0E0E0" stroke-width="0.5" stroke-linecap="round" stroke-linejoin="round"></path> <path opacity="0.4" d="M252.801 510.965L252.781 241.304L273.618 240.348L273.608 515.939L252.801 510.965Z" fill="#E0E0E0" stroke="#E0E0E0" stroke-width="0.5" stroke-linecap="round" stroke-linejoin="round"></path> <path opacity="0.4" d="M338.451 173.398L337.234 157.332L358.64 157.861L364.561 173.967L338.451 173.398Z" fill="#E0E0E0" stroke="#E0E0E0" stroke-width="0.5" stroke-linecap="round" stroke-linejoin="round"></path> <path opacity="0.4" d="M311.203 173.743L314.894 157.657L337.231 157.332L338.449 173.398L311.203 173.743Z" fill="#E0E0E0" stroke="#E0E0E0" stroke-width="0.5" stroke-linecap="round" stroke-linejoin="round"></path> <path opacity="0.4" d="M369.93 194.691L364.555 173.969L385.006 175.331L393.594 195.983L369.93 194.691Z" fill="#9D9D9C" stroke="#9D9D9C" stroke-width="0.5" stroke-linecap="round" stroke-linejoin="round"></path> <path opacity="0.4" d="M368.117 595.484L372.538 586.056L397.858 581.43L390.809 591.222L368.117 595.484Z" fill="#C0C0BF" stroke="#C0C0BF" stroke-width="0.5" stroke-linecap="round" stroke-linejoin="round"></path> <path opacity="0.4" d="M280.438 195.604L287.565 174.932L311.201 173.742L307.855 194.475L280.438 195.604Z" fill="#E0E0E0" stroke="#E0E0E0" stroke-width="0.5" stroke-linecap="round" stroke-linejoin="round"></path> <path opacity="0.4" d="M282.481 592.464L276.641 582.773L305.985 586.809L308.732 596.176L282.481 592.464Z" fill="#E0E0E0" stroke="#E0E0E0" stroke-width="0.5" stroke-linecap="round" stroke-linejoin="round"></path> <path opacity="0.4" d="M372.539 586.056L374.324 576.44L400.684 571.77L397.856 581.43L372.539 586.056Z" fill="#E0E0E0" stroke="#E0E0E0" stroke-width="0.5" stroke-linecap="round" stroke-linejoin="round"></path> <path opacity="0.4" d="M374.32 576.437L374.877 518.629L401.564 514.836L400.684 571.767L374.32 576.437Z" fill="#C0C0BF" stroke="#C0C0BF" stroke-width="0.5" stroke-linecap="round" stroke-linejoin="round"></path> <path opacity="0.4" d="M373.935 218.007L369.93 194.691L393.594 195.983L399.981 219.065L373.935 218.007Z" fill="#C0C0BF" stroke="#C0C0BF" stroke-width="0.5" stroke-linecap="round" stroke-linejoin="round"></path> <path opacity="0.4" d="M339.567 194.152L338.453 173.398L364.56 173.968L369.935 194.691L339.567 194.152Z" fill="#E0E0E0" stroke="#E0E0E0" stroke-width="0.5" stroke-linecap="round" stroke-linejoin="round"></path> <path opacity="0.4" d="M307.859 194.477L311.206 173.744L338.451 173.398L339.565 194.152L307.859 194.477Z" fill="#E0E0E0" stroke="#E0E0E0" stroke-width="0.5" stroke-linecap="round" stroke-linejoin="round"></path> <path opacity="0.4" d="M276.639 582.772L274.297 573.121L304.888 577.201L305.983 586.807L276.639 582.772Z" fill="#E0E0E0" stroke="#E0E0E0" stroke-width="0.5" stroke-linecap="round" stroke-linejoin="round"></path> <path opacity="0.4" d="M375.061 239.829L373.938 218.008L399.987 219.065L401.789 240.551L375.061 239.829Z" fill="#C0C0BF" stroke="#C0C0BF" stroke-width="0.5" stroke-linecap="round" stroke-linejoin="round"></path> <path opacity="0.4" d="M374.883 518.63L375.065 239.828L401.793 240.55L401.57 514.838L374.883 518.63Z" fill="#C0C0BF" stroke="#C0C0BF" stroke-width="0.5" stroke-linecap="round" stroke-linejoin="round"></path> <path opacity="0.4" d="M274.299 573.122L273.609 515.938L304.576 519.241L304.89 577.201L274.299 573.122Z" fill="#223DFF" stroke="#223DFF" stroke-width="0.5" stroke-linecap="round" stroke-linejoin="round"></path> <path opacity="0.4" d="M339.07 597.251L339.992 587.988L372.54 586.055L368.12 595.482L339.07 597.251Z" fill="#C0C0BF" stroke="#C0C0BF" stroke-width="0.5" stroke-linecap="round" stroke-linejoin="round"></path> <path opacity="0.4" d="M308.732 596.176L305.984 586.809L339.992 587.99L339.07 597.252L308.732 596.176Z" fill="#E0E0E0" stroke="#E0E0E0" stroke-width="0.5" stroke-linecap="round" stroke-linejoin="round"></path> <path opacity="0.4" d="M275.117 218.758L280.44 195.605L307.858 194.477L305.343 217.833L275.117 218.758Z" fill="#223DFF" stroke="#223DFF" stroke-width="0.5" stroke-linecap="round" stroke-linejoin="round"></path> <path opacity="0.4" d="M273.617 240.348L275.118 218.761L305.344 217.836L304.634 239.708L273.617 240.348Z" fill="#223DFF" stroke="#223DFF" stroke-width="0.5" stroke-linecap="round" stroke-linejoin="round"></path> <path opacity="0.4" d="M273.609 515.938L273.62 240.347L304.636 239.707L304.576 519.242L273.609 515.938Z" fill="#223DFF" stroke="#223DFF" stroke-width="0.5" stroke-linecap="round" stroke-linejoin="round"></path> <path opacity="0.4" d="M339.992 587.988L340.367 578.388L374.322 576.438L372.541 586.054L339.992 587.988Z" fill="#E0E0E0" stroke="#E0E0E0" stroke-width="0.5" stroke-linecap="round" stroke-linejoin="round"></path> <path opacity="0.4" d="M305.978 586.81L304.883 577.203L340.36 578.391L339.986 587.991L305.978 586.81Z" fill="#E0E0E0" stroke="#E0E0E0" stroke-width="0.5" stroke-linecap="round" stroke-linejoin="round"></path> <path opacity="0.4" d="M340.367 578.388L340.499 520.205L374.88 518.629L374.323 576.434L340.367 578.388Z" fill="#E0E0E0" stroke="#E0E0E0" stroke-width="0.5" stroke-linecap="round" stroke-linejoin="round"></path> <path opacity="0.4" d="M304.885 577.199L304.57 519.242L340.496 520.207L340.364 578.39L304.885 577.199Z" fill="#223DFF" stroke="#223DFF" stroke-width="0.5" stroke-linecap="round" stroke-linejoin="round"></path> <path opacity="0.4" d="M340.393 217.57L339.562 194.152L369.931 194.691L373.936 218.007L340.393 217.57Z" fill="#E0E0E0" stroke="#E0E0E0" stroke-width="0.5" stroke-linecap="round" stroke-linejoin="round"></path> <path opacity="0.4" d="M305.344 217.834L307.858 194.478L339.564 194.152L340.397 217.57L305.344 217.834Z" fill="#E0E0E0" stroke="#E0E0E0" stroke-width="0.5" stroke-linecap="round" stroke-linejoin="round"></path> <path opacity="0.4" d="M340.617 239.524L340.391 217.57L373.935 218.008L375.058 239.829L340.617 239.524Z" fill="#E0E0E0" stroke="#E0E0E0" stroke-width="0.5" stroke-linecap="round" stroke-linejoin="round"></path> <path opacity="0.4" d="M340.492 520.207L340.614 239.523L375.059 239.828L374.876 518.631L340.492 520.207Z" fill="#E0E0E0" stroke="#E0E0E0" stroke-width="0.5" stroke-linecap="round" stroke-linejoin="round"></path> <path opacity="0.4" d="M304.633 239.707L305.342 217.835L340.396 217.57L340.619 239.524L304.633 239.707Z" fill="#223DFF" stroke="#223DFF" stroke-width="0.5" stroke-linecap="round" stroke-linejoin="round"></path> <path opacity="0.4" d="M304.57 519.242L304.631 239.706L340.617 239.523L340.496 520.207L304.57 519.242Z" fill="#223DFF" stroke="#223DFF" stroke-width="0.5" stroke-linecap="round" stroke-linejoin="round"></path> <path opacity="0.4" d="M415.611 222.135L417.71 242.675L417.477 503.827L416.454 558.194L415.267 565.303L411.919 575.015L403.554 585.273L390.81 591.222L368.118 595.483L339.068 597.251L308.731 596.175L282.479 592.463L264.654 586.838L257.739 580.323L249.333 569.677L245.987 559.935L244.994 505.227L244.953 242.4L247.103 221.739L254.717 199.277L265.06 178.849L276.598 162.488L283.757 154.384L288.938 149.097L296.979 141.908L297.04 125.059L297.557 57.4914L296.847 57.0031L295.042 54.522L294.14 53.1291L292.68 50.9125V15.049L293.714 13.0153L295.275 10.4529L299.058 7.49399L305.344 5.7349L305.425 5.50102L305.699 5.2875L308.224 3.33518L314.693 1.51507L323.869 0.335552L334.313 0L344.342 0.559253L352.349 1.91163L357.107 3.8436L357.553 5.05362L360.471 5.54168L366.994 8.1956L368.512 10.6766L369.528 12.6696L370.591 15.8319L370.571 51.5937L369.123 53.7695L368.219 55.1422L365.705 56.8914L366.181 125.476L366.221 141.674L373.088 147.785L378.176 152.971L385.202 160.963L396.6 177.242L397.889 179.368L408.1 199.765L415.611 222.135Z" stroke="#002198" stroke-linecap="round" stroke-linejoin="round"></path> <path opacity="0.4" d="M296.977 141.906L300.597 140.442L309.103 139.201L321.251 138.398L335.111 138.164L348.415 138.55L359.001 139.476L365.226 140.788L366.218 141.672" stroke="#002198" stroke-linecap="round" stroke-linejoin="round"></path> <path opacity="0.4" d="M297.555 57.4919L297.565 56.3125L301.134 54.0143L309.499 52.0724L321.454 50.8013L335.091 50.4453L348.181 51.0351L358.594 52.4891L364.718 54.5633L365.703 56.8919" stroke="#002198" stroke-linecap="round" stroke-linejoin="round"></path> <path opacity="0.4" d="M305.344 5.73537L307.99 4.99309L320.766 3.36617L335.347 2.89844L349.339 3.67121L357.552 5.0541" stroke="#002198" stroke-linecap="round" stroke-linejoin="round"></path> </g> <path d="M128.63 188.962L77.5088 307.063H50.5144L-0.4375 188.962H29.0876L65.0239 273.32L101.466 188.962H128.63ZM195.889 309.087C183.629 309.087 172.55 306.444 162.652 301.158C152.866 295.871 145.162 288.616 139.538 279.393C134.027 270.058 131.271 259.597 131.271 248.012C131.271 236.427 134.027 226.023 139.538 216.8C145.162 207.464 152.866 200.154 162.652 194.867C172.55 189.581 183.629 186.938 195.889 186.938C208.149 186.938 219.171 189.581 228.957 194.867C238.742 200.154 246.447 207.464 252.071 216.8C257.695 226.023 260.507 236.427 260.507 248.012C260.507 259.597 257.695 270.058 252.071 279.393C246.447 288.616 238.742 295.871 228.957 301.158C219.171 306.444 208.149 309.087 195.889 309.087ZM195.889 285.805C202.862 285.805 209.161 284.23 214.785 281.081C220.409 277.819 224.795 273.32 227.945 267.583C231.207 261.847 232.837 255.323 232.837 248.012C232.837 240.701 231.207 234.178 227.945 228.441C224.795 222.705 220.409 218.262 214.785 215.113C209.161 211.851 202.862 210.22 195.889 210.22C188.915 210.22 182.617 211.851 176.993 215.113C171.369 218.262 166.926 222.705 163.664 228.441C160.515 234.178 158.94 240.701 158.94 248.012C158.94 255.323 160.515 261.847 163.664 267.583C166.926 273.32 171.369 277.819 176.993 281.081C182.617 284.23 188.915 285.805 195.889 285.805ZM282.735 188.962H336.386C349.21 188.962 360.514 191.436 370.299 196.386C380.196 201.222 387.846 208.083 393.245 216.969C398.755 225.854 401.512 236.202 401.512 248.012C401.512 259.822 398.755 270.17 393.245 279.056C387.846 287.941 380.196 294.859 370.299 299.808C360.514 304.644 349.21 307.063 336.386 307.063H282.735V188.962ZM335.037 284.624C346.848 284.624 356.239 281.362 363.213 274.838C370.299 268.202 373.842 259.26 373.842 248.012C373.842 236.765 370.299 227.879 363.213 221.355C356.239 214.719 346.848 211.401 335.037 211.401H310.067V284.624H335.037ZM466.831 260.666L450.972 277.2V307.063H423.809V188.962H450.972V244.132L503.274 188.962H533.643L484.715 241.601L536.511 307.063H504.624L466.831 260.666ZM622.889 281.755H568.057L557.597 307.063H529.59L582.229 188.962H609.224L662.031 307.063H633.35L622.889 281.755ZM614.285 261.003L595.558 215.788L576.83 261.003H614.285ZM56.1063 369.825H18.3143V347.554H121.23V369.825H83.4382V465.655H56.1063V369.825ZM193.17 467.679C180.91 467.679 169.831 465.037 159.934 459.75C150.148 454.462 142.443 447.208 136.82 437.986C131.308 428.649 128.553 418.189 128.553 406.605C128.553 395.021 131.308 384.614 136.82 375.392C142.443 366.056 150.148 358.747 159.934 353.459C169.831 348.172 180.91 345.53 193.17 345.53C205.43 345.53 216.453 348.172 226.239 353.459C236.024 358.747 243.729 366.056 249.353 375.392C254.976 384.614 257.788 395.021 257.788 406.605C257.788 418.189 254.976 428.649 249.353 437.986C243.729 447.208 236.024 454.462 226.239 459.75C216.453 465.037 205.43 467.679 193.17 467.679ZM193.17 444.397C200.144 444.397 206.443 442.821 212.067 439.673C217.69 436.41 222.077 431.912 225.226 426.175C228.488 420.439 230.119 413.917 230.119 406.605C230.119 399.292 228.488 392.77 225.226 387.034C222.077 381.297 217.69 376.853 212.067 373.705C206.443 370.442 200.144 368.812 193.17 368.812C186.197 368.812 179.898 370.442 174.274 373.705C168.65 376.853 164.207 381.297 160.946 387.034C157.796 392.77 156.222 399.292 156.222 406.605C156.222 413.917 157.796 420.439 160.946 426.175C164.207 431.912 168.65 436.41 174.274 439.673C179.898 442.821 186.197 444.397 193.17 444.397ZM323.039 419.258L307.18 435.792V465.655H280.017V347.554H307.18V402.724L359.481 347.554H389.85L340.923 400.193L392.718 465.655H360.831L323.039 419.258ZM498.037 443.722V465.655H406.593V347.554H495.844V369.487H433.756V395.132H488.589V416.39H433.756V443.722H498.037ZM629.786 347.554V465.655H607.347L548.466 393.951V465.655H521.471V347.554H544.079L602.792 419.258V347.554H629.786Z" fill="#0500FF"></path> </g> <defs> <clipPath id="clip0_320_10"> <rect width="165.341" height="151" fill="white" transform="scale(4)"></rect> </clipPath> </defs> </svg> 